<?xml version="1.0" standalone="no"?>
<!DOCTYPE svg PUBLIC "-//W3C//DTD SVG 1.1//EN" "http://www.w3.org/Graphics/SVG/1.1/DTD/svg11.dtd" >
<svg xmlns="http://www.w3.org/2000/svg">
<metadata>Generated by IcoMoon</metadata>
<defs>
<font id="icomoon_pwncic" horiz-adv-x="1024">
<font-face units-per-em="1024" ascent="960" descent="-64" />
<missing-glyph horiz-adv-x="1024" />
<glyph unicode="&#x20;" horiz-adv-x="512" d="" />
<glyph unicode="&#xe900;" horiz-adv-x="1472" d="M595.84 932.48h-279.68l-279.68-484.48 279.68-484.48h279.68l419.84 727.040 140.16-242.56-279.68-484.48h279.68l279.68 484.48-279.68 484.48h-279.68l-419.84-727.040-140.16 242.56z" />
<glyph unicode="&#xe901;" horiz-adv-x="1472" d="M736 690.56l139.52 241.92 140.16-241.92z" />
<glyph unicode="&#xe902;" horiz-adv-x="1472" d="M736 690.56l139.52-242.56 140.16 242.56z" />
<glyph unicode="&#xe903;" horiz-adv-x="1472" d="M595.84 448l140.16 242.56 139.52-242.56z" />
<glyph unicode="&#xe904;" horiz-adv-x="1472" d="M316.16 932.48l140.16-241.92 139.52 241.92z" />
<glyph unicode="&#xe905;" horiz-adv-x="1472" d="M176.64 690.56l139.52 241.92 140.16-241.92z" />
<glyph unicode="&#xe906;" horiz-adv-x="1472" d="M176.64 690.56l139.52-242.56 140.16 242.56z" />
<glyph unicode="&#xe907;" horiz-adv-x="1472" d="M36.48 448l140.16 242.56 139.52-242.56z" />
<glyph unicode="&#xe908;" horiz-adv-x="1472" d="M595.84 448l140.16-242.56 139.52 242.56z" />
<glyph unicode="&#xe909;" horiz-adv-x="1472" d="M456.32 205.44l139.52 242.56 140.16-242.56z" />
<glyph unicode="&#xe90a;" horiz-adv-x="1472" d="M456.32 205.44l139.52-241.92 140.16 241.92z" />
<glyph unicode="&#xe90b;" horiz-adv-x="1472" d="M316.16-36.48l140.16 241.92 139.52-241.92z" />
<glyph unicode="&#xe90c;" horiz-adv-x="1472" d="M36.48 448l140.16-242.56 139.52 242.56z" />
<glyph unicode="&#xe90d;" horiz-adv-x="1472" d="M1155.84-36.48l-140.16 241.92-139.52-241.92z" />
<glyph unicode="&#xe90e;" horiz-adv-x="1472" d="M1295.36 205.44l-139.52-241.92-140.16 241.92z" />
<glyph unicode="&#xe90f;" horiz-adv-x="1472" d="M1295.36 205.44l-139.52 242.56-140.16-242.56z" />
<glyph unicode="&#xe910;" horiz-adv-x="1472" d="M1435.52 448l-140.16-242.56-139.52 242.56z" />
<glyph unicode="&#xe911;" horiz-adv-x="1472" d="M1435.52 448l-140.16 242.56-139.52-242.56z" />
<glyph unicode="&#xe912;" horiz-adv-x="1472" d="M456.32 205.44l-140.16 242.56-139.52-242.56z" />
<glyph unicode="&#xe913;" horiz-adv-x="1472" d="M456.32 205.44l-140.16-241.92-139.52 241.92z" />
<glyph unicode="&#xe914;" horiz-adv-x="1472" d="M875.52 932.48l140.16-241.92 140.16 241.92z" />
<glyph unicode="&#xe915;" horiz-adv-x="1472" d="M1295.36 690.56l-139.52 241.92-140.16-241.92z" />
<glyph unicode="&#xe916;" horiz-adv-x="1472" d="M1295.36 690.56l-139.52-242.56-140.16 242.56z" />
<glyph unicode="&#xe917;" glyph-name="polymer_black" d="M810.667 789.333h-170.667l-336.853-538.88-111.147 197.547 192 341.333h-170.667l-192-341.333 192-341.333h170.667l336.853 538.88 111.147-197.547-192-341.333h170.667l192 341.333z" />
<glyph unicode="&#xe918;" horiz-adv-x="2801" d="M0-64.247h2800.875v1024.493h-2800.875z" />
<glyph unicode="&#xe919;" horiz-adv-x="2801" d="M2440.076 550.449c2.079 0 4.157 0 5.345 2.079 0.297 0.891 0.594 1.782 0.594 2.673 0 0.013 0 0.028 0 0.043 0 1.749-0.946 3.278-2.353 4.103l-0.022 0.012c-1.485 0.594-2.97 0.594-6.236 0.594h-1.485v-9.206h4.157zM2437.403 565c4.454 0 6.533 0 8.315-0.891 5.939-1.782 6.533-7.127 6.533-8.909 0-0.297 0-1.485-0.297-2.673s-0.891-3.563-4.157-5.642c-0.594-0.297-0.594-0.297-1.485-0.594l7.424-13.66h-7.127l-6.533 12.472h-4.157v-12.472h-6.533v32.368zM2440.076 519.269c15.908 0 28.805 12.896 28.805 28.805s-12.896 28.805-28.805 28.805v0c-15.739 0-28.508-12.769-28.508-28.805 0-15.739 12.769-28.805 28.508-28.805zM2417.507 548.074c0 12.472 10.096 22.866 22.569 22.866 12.769 0 22.866-10.393 22.866-22.866 0-12.175-10.393-22.569-22.866-22.569-12.175 0-22.569 10.393-22.569 22.569zM2217.36 364.853c-38.010 0-69.784 25.538-79.584 60.282h210.244l29.102 45.137h-239.642c10.062 35.145 41.85 60.456 79.57 60.579h144.928l28.805 45.137h-176.985c-70.972 0-128.284-57.312-128.284-127.987s57.312-127.987 128.284-127.987h152.041l28.805 45.137h-177.579zM1614.839 319.716c-70.685 0-127.987 57.302-127.987 127.987s57.302 127.987 127.987 127.987v0h176.985l-29.102-45.137h-144.914c-44.809-1.238-80.662-37.857-80.662-82.85s35.853-81.613 80.547-82.848l0.114-0.002h177.579l-29.102-45.137h-152.041zM679.432 364.853c45.731 0 83.147 37.119 83.147 82.85s-37.119 82.85-83.147 82.85h-142.241c-44.809-1.238-80.662-37.857-80.662-82.85s35.853-81.613 80.547-82.848l0.114-0.002zM533.924 319.716c-70.972 0-128.284 57.312-128.284 127.987s57.312 127.987 128.284 127.987h148.774c70.685 0 127.987-57.302 127.987-127.987s-57.302-127.987-127.987-127.987v0zM1052.407 402.566c48.107 0 86.711 38.901 86.711 86.711s-38.604 86.711-86.711 86.711h-215.589v-256.272h49.294v211.135h163.028c22.569 0 41.277-18.708 41.277-41.574s-18.708-41.277-41.277-41.277h-138.975l146.696-128.284h71.566l-98.886 82.85h22.272zM1867.25 364.853v210.838h-48.998v-231.625c0-6.533 2.376-12.472 7.127-17.223 4.751-4.454 11.284-7.424 18.114-7.424h224.795l29.102 45.137h-229.843zM1264.432 409.99h131.551l-69.487 111.952-127.69-202.523h-57.906l155.010 242.909c6.83 9.8 18.114 15.739 30.586 15.739 11.878 0 23.162-5.642 29.992-15.145l155.604-243.503h-58.203l-27.32 45.137h-133.036l-29.102 45.137z" />
<glyph unicode="&#xe91a;" glyph-name="oracle_white" d="M737.822 506.626h-19.482v-119.274h91.526l12.398 19.486h-84.442v99.788zM470.672 500.722l-71.448-113.37h23.62l21.552 34.25h46.056l12.106 19.48h-46.058l25.094 39.268 58.752-92.998h23.614l-72.036 113.664c-4.424 7.382-16.236 7.382-21.252-0.294zM609.132 487.178h81.928l12.080 19.468-94.596-0.054c-32.922 0-54.588-26.684-54.588-59.6 0-32.914 21.666-59.604 54.588-59.604l80.024 0.094 12.528 19.322h-91.962c-22.196 0-35.168 17.992-35.168 40.188-0.002 22.192 12.972 40.186 35.166 40.186zM191.044 506.592h-84.438c-32.916 0-54.582-26.684-54.582-59.602 0-32.912 21.666-59.602 54.582-59.602h84.438c32.918 0 54.582 26.69 54.582 59.602 0 32.918-21.664 59.602-54.582 59.602zM191.044 406.804h-84.438c-22.194 0-35.166 17.992-35.166 40.186s12.974 40.188 35.166 40.188h84.438c22.194 0 35.168-17.994 35.168-40.188s-12.974-40.186-35.168-40.186zM843.712 437.542h103.178l12.408 19.486h-115.586c3.376 17.266 15.566 30.148 34.242 30.148h81.93l12.090 19.468-94.606-0.054c-32.922 0-54.578-26.684-54.578-59.6 0-32.914 21.656-59.604 54.578-59.604l80.022 0.094 12.528 19.322h-91.962c-18.944 0.002-31.076 13.102-34.244 30.74zM356.666 435.814c19.542 0 35.384 15.842 35.384 35.386 0 19.542-15.842 35.382-35.384 35.382l-99.348 0.042v-119.274h21.848v99.816h77.5c8.82 0 15.97-7.15 15.97-15.968 0-8.82-7.15-15.97-15.97-15.97h-62.146l70.104-67.742h28.206l-50.188 48.286 14.024 0.042z" />
<glyph unicode="&#xe91b;" horiz-adv-x="904" d="M451.918 960v-268.812c75.807 0 137.261-61.454 137.261-137.261s-61.454-137.261-137.261-137.261v0c69.382 0 125.627-56.245 125.627-125.627v0-123.343c164.481 54.376 281.070 206.724 281.070 386.303 0 224.229-181.774 406.003-406.003 406.003-0.294 0-0.588 0-0.882-0.001h0.046z" />
<glyph unicode="&#xe91c;" horiz-adv-x="904" d="M857.921 553.997c0 224.229-181.774 406.003-406.003 406.003v0c-0.212 0-0.464 0.001-0.716 0.001-224.15 0-405.86-181.71-405.86-405.86 0-179.507 116.537-331.796 278.082-385.337l2.867-0.823v-203.43c0-15.769 12.783-28.552 28.552-28.552v0h192.723c15.769 0 28.552 12.783 28.552 28.552v0 203.144c164.925 54.085 281.956 206.58 282.089 386.429v0.016zM451.918 416.95c-75.768 0-137.19 61.422-137.19 137.19s61.422 137.19 137.19 137.19v0c75.807 0 137.261-61.454 137.261-137.261s-61.454-137.261-137.261-137.261v0z" />
<glyph unicode="&#xe91d;" d="M833.943 287.666c-12.086-49.809-73.418-153.81-106.020-199.582-32.592-45.963-28.565-87.341-88.808-71.229-60.057 16.113-76.908 13.18-138.978 9.52-61.704-3.66-48.338 1.833-86.975-15.565-38.451-17.393-167.543 210.935-177.982 253.418-10.253 42.478-15.194 37.352 11.539 83.315s30.578 91.368 65.916 147.037c35.338 55.849 76.175 84.228 73.242 126.892-11.533 158.39-20.692 237.492 49.623 274.11 67.016 34.791 123.046 14.099 145.204 2.199 9.515-5.126 28.926-15.018 43.392-32.411 14.466-17.032 27.465-42.845 34.791-75.442 15.013-65.369-6.226-43.764 10.8-118.653 16.851-74.709 51.090-111.332 92.845-170.475 41.745-59.138 85.328-156.732 71.409-213.134z" />
<glyph unicode="&#xe91e;" d="M483.201 730.594c2.523 0.388 5.684 0.011 10.529-2.109 2.948-1.296 1.721-1.482-3.257-0.462-4.786 0.972-2.513 0.441-5.791 1.015-5.551 0.882-6.524 0.829-1.482 1.557zM465.846 588.667c-23.8-0.914-61.523 65.736-62.437 38.090-0.733-23.438 0.547-23.072 0.547-45.777 0-15.199-6.959-16.298-21.972-39.184-7.687-12.086-13.733-25.091-18.493-38.271-2.36-5.908-5.047-13.952-7.379-22.144l-0.494-2.027c-0.914-4.027-2.561-8.24-3.48-12.266-7.506-27.651-34.239-61.709-40.465-89.36-6.226-27.465-13.552-45.044-12.638-81.843 0.919-36.81 1.286-26.185 12.452-35.338 10.986-9.159 22.339-17.765 39.732-33.144 18.312-15.927 56.397-43.758 61.528-52.364 5.488-8.787 5.307-28.565 2.013-34.972-3.299-6.226-32.044-9.706-31.864-9.706-0.181 0 25.085-34.791 30.031-39.732 4.76-4.76 25.271-27.646 108.766-12.080 47.052 8.787 83.495 35.152 109.861 60.609 34.063 33.139 16.851 42.659 21.239 59.324 6.412 23.991 27.29 32.958 32.050 60.062 0.552 3.841 1.827 6.768 5.312 12.452 5.302 8.054 4.027 23.986 4.027 38.632 0 38.085-4.399 76.908-13.185 105.473-8.054 26.732-20.878 45.411-31.853 69.577-21.977 48.157-20.878 69.763-40.475 100.527-22.339 35.524-11.353 59.143-41.017 57.677-36.98-2.029-66.836-52.747-101.807-54.213z" />
<glyph unicode="&#xe91f;" d="M465.803 585.91c-23.603-0.898-60.392 64.881-61.651 38.605-0.802-22.27 0.25-22.073 0.074-43.865-0.382-14.928-7.512-16.883-22.19-39.37-7.661-12.112-13.414-24.952-17.786-37.835-2.46-8.271-3.968-16.33-6.184-24.225-1.057-4.176-3.804-8.101-5.557-12.824-8.271-27.412-34.44-61.497-40.592-88.696-6.269-27.497-13.653-45.007-12.617-81.742 0.935-35.604 1.004-25.882 12.139-35.136 10.89-9.196 22.477-17.983 39.832-33.319 18.264-15.889 56.551-43.78 61.651-52.354 5.466-8.76 5.419-28.788 2.146-35.158-3.267-6.2-31.991-9.849-31.811-9.849-0.181 0 24.963-34.504 29.898-39.439 4.76-4.76 25.181-27.492 108.538-11.964 47.105 8.787 84.239 34.977 109.558 60.668 32.517 32.454 15.534 42.659 19.9 59.239 6.391 23.943 28.676 32.953 33.42 60.020 0.552 3.83 1.918 6.747 5.376 12.399 5.334 8.139 3.974 24.023 4.027 38.621 0.165 38.207-4.335 76.892-13.127 105.366-8.064 26.668-20.857 45.315-31.821 69.444-21.935 48.083-20.91 69.725-40.518 100.389-21.839 34.621-11.703 57.438-40.725 55.924-36.555-2.109-67.069-53.454-101.982-54.899z" />
<glyph unicode="&#xe920;" d="M465.755 583.148c-23.396-0.877-59.249 64.025-60.859 39.121-0.877-21.096-0.042-21.069-0.398-41.947-0.765-14.657-8.064-17.462-22.413-39.556-7.634-12.144-13.090-24.82-17.069-37.399-1.997-8.67-2.263-16.548-4.489-24.283-1.201-4.314-5.052-7.963-7.639-13.371-9.036-27.184-34.642-61.289-40.714-88.048-6.311-27.513-13.759-44.954-12.601-81.62 0.951-34.409 0.728-25.574 11.831-34.94 10.795-9.238 22.615-18.195 39.928-33.5 18.227-15.847 56.71-43.801 61.783-52.349 5.44-8.728 5.53-29 2.279-35.338-3.23-6.173-31.938-9.998-31.758-9.998-0.181 0 24.841-34.212 29.771-39.147 4.749-4.744 25.096-27.322 108.304-11.836 47.169 8.781 84.977 34.791 109.245 60.732 30.993 31.763 14.216 42.648 18.562 59.143 6.38 23.906 30.079 32.958 34.812 59.988 0.542 3.814 2.003 6.72 5.435 12.341 5.344 8.234 3.91 24.065 4.016 38.6 0.34 38.34-4.276 76.876-13.063 105.271-8.064 26.594-20.846 45.219-31.789 69.306-21.892 48.008-20.936 69.678-40.56 100.245-21.345 33.718-12.059 55.722-40.422 54.176-36.146-2.194-67.33-54.165-102.19-55.589z" />
<glyph unicode="&#xe921;" d="M465.718 580.385c-23.199-0.861-58.118 63.17-60.078 39.641-0.946-19.922-0.329-20.065-0.866-40.034-1.147-14.386-8.617-18.046-22.631-39.742-7.607-12.171-12.771-24.687-16.362-36.964-1.53-9.068-0.552-16.771-2.794-24.341-1.339-4.462-6.295-7.831-9.716-13.924-9.801-26.945-34.849-61.077-40.837-87.389-6.359-27.54-13.871-44.911-12.585-81.514 0.967-33.203 0.446-25.276 11.517-34.738 10.699-9.275 22.753-18.413 40.029-33.675 18.179-15.81 56.859-43.822 61.906-52.343 5.424-8.702 5.642-29.224 2.412-35.529-3.203-6.141-31.885-10.141-31.704-10.141-0.181 0 24.719-33.925 29.643-38.85 4.739-4.744 25.006-27.162 108.070-11.714 47.222 8.776 85.726 34.616 108.936 60.785 29.457 31.088 12.909 42.648 17.233 59.058 6.348 23.858 31.471 32.958 36.183 59.945 0.552 3.804 2.098 6.694 5.498 12.293 5.376 8.309 3.862 24.097 4.016 38.579 0.51 38.467-4.213 76.86-12.989 105.175-8.080 26.52-20.846 45.113-31.763 69.162-21.85 47.934-20.979 69.635-40.619 100.118-20.835 32.809-12.399 54.011-40.125 52.418-35.71-2.268-67.579-54.861-102.376-56.274z" />
<glyph unicode="&#xe922;" d="M465.67 577.628c-22.997-0.839-56.986 62.309-59.287 40.157-1.009-18.748-0.627-19.061-1.339-38.117-1.53-14.115-9.164-18.631-22.849-39.933-7.581-12.197-12.447-24.559-15.65-36.528-1.062-9.472 1.158-16.989-1.1-24.395-1.482-4.616-7.538-7.698-11.794-14.482-10.566-26.716-35.051-60.87-40.959-86.73-6.407-27.566-13.977-44.869-12.564-81.402 0.983-32.007 0.17-24.974 11.204-34.541 10.609-9.318 22.897-18.625 40.125-33.851 18.142-15.773 57.013-43.843 62.044-52.333 5.392-8.67 5.743-29.441 2.534-35.71-3.172-6.12-31.832-10.295-31.651-10.295-0.186 0 24.591-33.638 29.505-38.558 4.739-4.739 24.921-26.998 107.853-11.592 47.259 8.776 86.449 34.424 108.623 60.848 27.922 30.398 11.592 42.637 15.884 58.963 6.338 23.821 32.873 32.958 37.569 59.908 0.542 3.793 2.178 6.667 5.562 12.245 5.387 8.404 3.788 24.14 4.006 38.568 0.685 38.589-4.149 76.839-12.93 105.069-8.091 26.445-20.835 45.017-31.731 69.019-21.807 47.86-21 69.598-40.672 99.974-20.325 31.906-12.75 52.301-39.822 50.67-35.28-2.348-67.818-55.568-102.561-56.954z" />
<glyph unicode="&#xe923;" d="M465.628 574.871c-22.796-0.823-55.855 61.454-58.5 40.672-1.084-17.579-0.919-18.057-1.812-36.199-1.918-13.844-9.716-19.21-23.072-40.119-6.503-10.378-11.644-22.418-14.766-35.248l-0.173-0.839c-0.595-9.87 2.869-17.207 0.595-24.453-1.62-4.76-8.781-7.56-13.876-15.034-11.331-26.477-35.253-60.668-41.081-86.072-6.449-27.593-14.078-44.826-12.548-81.296 0.999-30.807-0.112-24.671 10.896-34.339 10.513-9.36 23.035-18.843 40.22-34.026 18.094-15.73 57.167-43.865 62.171-52.322 5.366-8.643 5.854-29.665 2.667-35.896-3.14-6.093-31.779-10.444-31.598-10.444-0.181 0 24.469-33.346 29.378-38.255 4.728-4.733 24.83-26.838 107.619-11.47 47.312 8.771 87.209 34.249 108.315 60.907 26.387 29.712 10.274 42.637 14.545 58.878 6.327 23.784 34.27 32.958 38.951 59.871 0.552 3.777 2.263 6.641 5.636 12.192 5.408 8.489 3.735 24.177 3.995 38.547 0.85 38.717-4.096 76.828-12.867 104.973-8.091 26.376-20.825 44.927-31.689 68.886-21.781 47.785-21.042 69.555-40.725 99.836-19.826 31.003-13.106 50.59-39.53 48.917-34.855-2.46-68.063-56.301-102.753-57.666z" />
<glyph unicode="&#xe924;" d="M465.58 572.109c-22.594-0.802-54.713 60.599-57.709 41.192-1.153-16.41-1.217-17.058-2.284-34.292-2.3-13.579-10.269-19.794-23.29-40.305-6.412-10.247-11.338-22.179-14.098-34.919l-0.134-0.738c-0.122-10.269 4.579-17.425 2.29-24.506-1.764-4.903-10.025-7.421-15.948-15.592-12.096-26.243-35.455-60.45-41.203-85.418-6.497-27.609-14.184-44.778-12.532-81.174 1.015-29.606-0.382-24.368 10.588-34.143 10.412-9.403 23.173-19.061 40.316-34.201 18.052-15.693 57.321-43.886 62.304-52.317 5.339-8.606 5.961-29.877 2.8-36.077-3.108-6.067-31.731-10.588-31.545-10.588-0.186 0 24.347-33.059 29.245-37.963 4.723-4.723 24.745-26.674 107.39-11.342 47.376 8.765 87.947 34.063 108.001 60.971 24.862 29.022 8.967 42.627 13.217 58.782 6.301 23.736 35.662 32.953 40.321 59.834 0.552 3.761 2.353 6.609 5.695 12.134 5.424 8.58 3.671 24.225 3.995 38.531 1.015 38.844-4.037 76.812-12.803 104.872-8.101 26.302-20.814 44.826-31.657 68.743-21.738 47.705-21.074 69.513-40.778 99.703-19.321 30.1-13.446 48.88-39.232 47.158-34.435-2.529-68.312-57.002-102.949-58.346z" />
<glyph unicode="&#xe925;" d="M465.532 569.352c-22.392-0.781-53.576 59.749-56.917 41.713-1.222-15.236-1.509-16.054-2.762-32.374-2.677-13.308-10.816-20.378-23.507-40.497-6.323-10.111-11.033-21.937-13.415-34.586l-0.1-0.636c0.34-10.662 6.285-17.637 3.984-24.559-1.902-5.047-11.268-7.289-18.036-16.139-12.856-26.015-35.657-60.248-41.325-84.76-6.54-27.64-14.29-44.741-12.511-81.067 1.031-28.416-0.664-24.065 10.274-33.946 10.322-9.435 23.311-19.273 40.412-34.382 18.009-15.65 57.475-43.907 62.432-52.306 5.312-8.58 6.072-30.1 2.932-36.257-3.081-6.046-31.673-10.736-31.492-10.736-0.186 0 24.219-32.778 29.112-37.676 4.717-4.717 24.655-26.509 107.167-11.22 47.419 8.765 88.68 33.888 107.688 61.024 23.316 28.342 7.639 42.627 11.868 58.702 6.29 23.693 37.065 32.953 41.713 59.797 0.542 3.745 2.438 6.582 5.759 12.075 5.445 8.67 3.612 24.256 3.984 38.515 1.195 38.972-3.974 76.796-12.739 104.777-8.101 26.233-20.803 44.725-31.614 68.605-21.707 47.631-21.117 69.47-40.831 99.565-18.822 29.202-13.802 47.169-38.94 45.411-34.010-2.619-68.551-57.714-103.135-59.042z" />
<glyph unicode="&#xe926;" d="M465.495 566.594c-22.19-0.765-52.444 58.888-56.126 42.228-1.296-14.062-1.806-15.050-3.235-30.456-3.060-13.037-11.369-20.957-23.725-40.682-7.469-12.309-11.161-24.028-12.808-34.786 0.807-11.066 7.995-17.86 5.679-24.618-2.045-5.196-12.505-7.151-20.113-16.697-13.621-25.781-35.859-60.036-41.447-84.106-6.587-27.662-14.397-44.688-12.5-80.951 1.047-27.21-0.94-23.762 9.966-33.739 10.226-9.483 23.449-19.491 40.507-34.563 17.967-15.613 57.634-43.928 62.559-52.295 5.291-8.553 6.184-30.318 3.060-36.443-3.049-6.019-31.625-10.88-31.439-10.88-0.181 0 24.097-32.485 28.99-37.378 4.707-4.712 24.565-26.35 106.934-11.103 47.472 8.765 89.419 33.707 107.38 61.093 21.792 27.646 6.327 42.616 10.529 58.601 6.269 23.656 38.462 32.958 43.089 59.759 0.552 3.729 2.534 6.556 5.822 12.033 5.466 8.75 3.559 24.288 3.995 38.494 1.349 39.094-3.921 76.78-12.691 104.676-8.112 26.158-20.782 44.624-31.582 68.461-21.664 47.562-21.143 69.428-40.879 99.427-18.312 28.294-14.142 45.458-38.637 43.652-33.585-2.699-68.806-58.426-103.326-59.727z" />
<glyph unicode="&#xe927;" d="M465.447 563.832c-21.988-0.744-51.307 58.033-55.339 42.744-1.365-12.888-2.104-14.057-3.708-28.544-3.442-12.76-11.921-21.547-23.948-40.863-7.432-12.341-10.837-23.895-12.091-34.35 1.275-11.464 9.7-18.078 7.368-24.676-2.183-5.344-13.754-7.012-22.19-17.244-14.386-25.547-36.061-59.828-41.57-83.453-6.63-27.688-14.503-44.646-12.479-80.839 1.062-26.010-1.217-23.46 9.647-33.537 10.131-9.525 23.587-19.709 40.613-34.738 17.924-15.576 57.783-43.944 62.692-52.29 5.265-8.521 6.29-30.536 3.193-36.629-3.012-5.987-31.566-11.029-31.386-11.029-0.181 0 23.975-32.199 28.857-37.075 4.701-4.701 24.474-26.19 106.705-10.97 47.52 8.755 90.168 33.521 107.066 61.146 20.262 26.961 5.020 42.616 9.201 58.516 6.247 23.608 39.854 32.953 44.47 59.717 0.542 3.719 2.603 6.529 5.881 11.979 5.488 8.84 3.496 24.336 3.984 38.483 1.514 39.222-3.862 76.754-12.628 104.57-8.112 26.084-20.772 44.534-31.545 68.323-21.622 47.482-21.186 69.385-40.932 99.289-17.818 27.396-14.503 43.748-38.35 41.904-33.165-2.8-69.045-59.148-103.512-60.434z" />
<glyph unicode="&#xe928;" d="M465.405 561.075c-21.792-0.728-50.176 57.178-54.553 43.264-1.434-11.719-2.396-13.053-4.176-26.631-3.825-12.495-12.474-22.126-24.161-41.054-7.411-12.367-10.519-23.768-11.39-33.92 1.742-11.857 11.411-18.296 9.063-24.729-2.327-5.488-14.997-6.88-24.267-17.802-15.151-25.314-36.268-59.616-41.692-82.789-6.672-27.72-14.609-44.608-12.463-80.733 1.084-24.809-1.493-23.152 9.345-33.341 10.035-9.562 23.725-19.922 40.704-34.913 17.882-15.534 57.943-43.96 62.825-52.274 5.238-8.495 6.396-30.759 3.32-36.81-2.986-5.966-31.519-11.177-31.333-11.177-0.186 0 23.853-31.912 28.724-36.783 4.696-4.701 24.384-26.026 106.471-10.853 47.573 8.755 90.911 33.341 106.769 61.204 18.716 26.281 3.703 42.616 7.857 58.431 6.237 23.571 41.246 32.953 45.862 59.68 0.542 3.703 2.688 6.502 5.945 11.921 5.498 8.925 3.432 24.373 3.974 38.462 1.689 39.349-3.798 76.743-12.553 104.474-8.133 26.010-20.772 44.433-31.524 68.185-21.579 47.408-21.207 69.343-40.985 99.151-17.308 26.488-14.848 42.042-38.048 40.151-32.751-2.874-69.311-59.85-103.714-61.114z" />
<glyph unicode="&#xe929;" d="M465.362 558.312c-21.584-0.707-49.039 56.328-53.767 43.785-1.503-10.545-2.688-12.049-4.648-24.713-4.213-12.224-13.026-22.711-24.384-41.24-7.384-12.394-10.195-23.63-10.673-33.484 2.205-12.261 13.116-18.514 10.752-24.788-2.47-5.636-16.24-6.747-26.35-18.354-15.916-25.080-36.464-59.409-41.814-82.13-6.72-27.741-14.721-44.566-12.447-80.621 1.1-23.614-1.774-22.854 9.031-33.139 9.94-9.605 23.863-20.139 40.799-35.094 17.839-15.491 58.097-43.981 62.952-52.269 5.211-8.457 6.508-30.971 3.453-36.99-2.954-5.934-31.46-11.326-31.28-11.326-0.181 0 23.725-31.619 28.597-36.491 4.686-4.686 24.299-25.861 106.248-10.731 47.615 8.755 91.639 33.16 106.445 61.268 17.18 25.585 2.385 42.611 6.518 58.33 6.216 23.534 42.643 32.953 47.243 59.653 0.542 3.682 2.778 6.476 6.019 11.868 5.52 9.010 3.373 24.411 3.963 38.441 1.859 39.477-3.745 76.727-12.495 104.373-8.133 25.941-20.761 44.337-31.481 68.047-21.552 47.334-21.25 69.3-41.038 99.013-16.808 25.585-15.199 40.332-37.755 38.393-32.305-2.948-69.545-60.551-103.89-61.799z" />
<glyph unicode="&#xe92a;" d="M465.314 555.555c-21.382-0.685-47.907 55.467-52.975 44.3-1.578-9.371-2.986-11.045-5.121-22.796-4.595-11.958-13.579-23.3-24.602-41.426-7.352-12.42-9.876-23.497-9.961-33.049 2.677-12.659 14.827-18.732 12.452-24.841-2.608-5.775-17.483-6.609-28.427-18.907-16.681-24.841-36.672-59.202-41.942-81.477-6.763-27.768-14.822-44.523-12.426-80.504 1.11-22.418-2.051-22.551 8.723-32.942 9.844-9.647 24.001-20.357 40.9-35.274 17.797-15.454 58.251-44.003 63.080-52.258 5.19-8.431 6.614-31.195 3.581-37.176-2.922-5.907-31.412-11.47-31.226-11.47-0.181 0 23.603-31.333 28.469-36.193 4.68-4.68 24.209-25.696 106.020-10.604 47.679 8.75 92.388 32.979 106.137 61.327 15.656 24.905 1.078 42.606 5.19 58.24 6.194 23.492 44.035 32.958 48.619 59.616 0.531 3.671 2.863 6.449 6.072 11.82 5.541 9.1 3.32 24.453 3.963 38.425 2.035 39.604-3.682 76.711-12.442 104.277-8.133 25.866-20.74 44.236-31.439 67.903-21.499 47.259-21.282 69.263-41.086 98.875-16.298 24.681-15.544 38.616-37.458 36.64-31.906-3.055-69.81-61.279-104.102-62.506z" />
<glyph unicode="&#xe92b;" d="M465.272 552.798c-21.181-0.669-46.771 54.612-52.184 44.821-1.647-8.202-3.278-10.046-5.594-20.888-4.978-11.682-14.126-23.879-24.825-41.612-7.326-12.447-9.552-23.364-9.254-32.613 3.145-13.058 16.538-18.955 14.147-24.899-2.752-5.929-18.721-6.471-30.504-19.465-17.446-24.607-36.873-58.989-42.064-80.823-6.811-27.779-14.933-44.47-12.41-80.393 1.132-21.212-2.327-22.248 8.41-32.74 9.748-9.685 24.14-20.57 40.996-35.45 17.754-15.411 58.405-44.024 63.207-52.248 5.169-8.404 6.726-31.412 3.719-37.357-2.89-5.881-31.359-11.624-31.179-11.624-0.181 0 23.481-31.046 28.336-35.901 4.68-4.68 24.129-25.537 105.791-10.481 47.727 8.744 93.121 32.794 105.823 61.385 14.131 24.219-0.228 42.6 3.852 58.155 6.184 23.444 45.437 32.948 50 59.568 0.542 3.66 2.959 6.423 6.141 11.767 5.562 9.185 3.257 24.485 3.952 38.409 2.199 39.732-3.623 76.701-12.367 104.176-8.144 25.786-20.74 44.141-31.407 67.765-21.467 47.185-21.324 69.215-41.139 98.737-15.815 23.778-15.895 36.905-37.166 34.887-31.465-3.124-70.050-61.969-104.283-63.175z" />
<glyph unicode="&#xe92c;" d="M465.224 550.036c-20.979-0.653-45.634 53.756-51.392 45.336-1.716-7.028-3.575-9.042-6.067-18.965-5.36-11.416-14.678-24.464-25.043-41.803-7.299-12.479-9.233-23.237-8.542-32.177 3.612-13.456 18.248-19.173 15.842-24.958-2.89-6.072-19.969-6.332-32.586-20.012-18.211-24.379-37.075-58.777-42.186-80.164-6.858-27.81-15.039-44.433-12.394-80.281 1.147-20.022-2.608-21.946 8.101-32.544 9.653-9.727 24.278-20.787 41.092-35.625 17.712-15.379 58.553-44.045 63.335-52.242 5.137-8.367 6.832-31.63 3.846-37.538-2.863-5.865-31.306-11.767-31.125-11.767-0.175 0 23.359-30.759 28.209-35.604 4.67-4.675 24.033-25.372 105.558-10.359 47.78 8.744 93.87 32.613 105.521 61.443 12.585 23.534-1.557 42.595 2.513 58.065 6.152 23.401 46.824 32.953 51.371 59.536 0.542 3.644 3.049 6.391 6.216 11.714 5.573 9.27 3.198 24.522 3.942 38.393 2.364 39.854-3.559 76.685-12.304 104.081-8.155 25.723-20.718 44.040-31.375 67.622-21.425 47.116-21.345 69.173-41.192 98.604-15.294 22.875-16.24 35.2-36.863 33.139-31.046-3.23-70.294-62.702-104.474-63.892z" />
<glyph unicode="&#xe92d;" d="M465.182 547.278c-20.777-0.632-44.497 52.901-50.606 45.857-1.785-5.865-3.867-8.043-6.534-17.053-5.748-11.145-15.231-25.048-25.261-41.989-7.267-12.505-8.914-23.104-7.831-31.742 4.075-13.855 19.948-19.39 17.531-25.011-3.033-6.216-21.212-6.2-34.664-20.564-18.976-24.15-37.283-58.569-42.308-79.511-6.896-27.837-15.14-44.385-12.378-80.17 1.169-18.822-2.879-21.643 7.788-32.347 9.557-9.77 24.416-21 41.187-35.8 17.669-15.337 58.713-44.066 63.467-52.232 5.116-8.34 6.938-31.853 3.979-37.729-2.826-5.833-31.253-11.91-31.072-11.91-0.181 0 23.237-30.467 28.076-35.306 4.664-4.67 23.948-25.213 105.34-10.242 47.822 8.744 94.609 32.432 105.202 61.507 11.050 22.843-2.863 42.59 1.174 57.974 6.141 23.359 48.226 32.953 52.763 59.499 0.542 3.628 3.124 6.364 6.269 11.655 5.605 9.36 3.145 24.565 3.942 38.377 2.545 39.976-3.496 76.669-12.245 103.975-8.155 25.648-20.708 43.944-31.333 67.484-21.393 47.036-21.382 69.136-41.246 98.466-14.806 21.972-16.601 33.489-36.576 31.38-30.626-3.299-70.538-63.404-104.665-64.567z" />
<glyph unicode="&#xe92e;" d="M465.139 544.516c-20.58-0.611-43.365 52.046-49.82 46.372-1.859-4.691-4.165-7.039-7.012-15.14-6.125-10.875-15.783-25.632-25.478-42.175-7.241-12.532-8.59-22.971-7.119-31.306 4.542-14.253 21.664-19.608 19.231-25.069-3.177-6.359-22.456-6.061-36.746-21.117-19.741-23.911-37.484-58.357-42.43-78.852-6.949-27.864-15.247-44.348-12.357-80.058 1.179-17.616-3.166-21.34 7.475-32.145 9.461-9.812 24.559-21.218 41.288-35.976 17.627-15.3 58.867-44.088 63.595-52.221 5.089-8.309 7.050-32.071 4.106-37.915-2.794-5.806-31.2-12.059-31.019-12.059-0.181 0 23.114-30.185 27.943-35.019 4.654-4.654 23.858-25.048 105.106-10.11 47.886 8.744 95.342 32.252 104.899 61.566 9.515 22.158-4.191 42.584-0.175 57.884 6.131 23.316 49.629 32.948 54.139 59.451 0.542 3.623 3.214 6.343 6.338 11.613 5.615 9.451 3.081 24.607 3.931 38.361 2.709 40.103-3.432 76.653-12.181 103.879-8.165 25.579-20.697 43.849-31.306 67.345-21.356 46.962-21.414 69.093-41.293 98.328-14.296 21.069-16.941 31.779-36.263 29.633-30.19-3.389-70.783-64.121-104.851-65.268z" />
<glyph unicode="&#xe92f;" d="M465.091 541.759c-20.373-0.59-42.228 51.19-49.028 46.887-1.928-3.512-4.457-6.035-7.491-13.223-6.508-10.604-16.33-26.211-25.696-42.361-7.209-12.559-8.271-22.838-6.412-30.87 5.010-14.652 23.369-19.826 20.92-25.122-3.315-6.508-23.699-5.929-38.823-21.675-20.501-23.677-37.686-58.155-42.558-78.193-6.986-27.89-15.353-44.3-12.341-79.947 1.201-16.421-3.442-21.037 7.166-31.949 9.371-9.849 24.697-21.436 41.389-36.156 17.584-15.257 59.016-44.109 63.728-52.21 5.063-8.287 7.156-32.294 4.239-38.101-2.768-5.775-31.147-12.203-30.966-12.203-0.181 0 22.992-29.893 27.816-34.727 4.648-4.648 23.778-24.883 104.878-9.982 47.934 8.739 96.091 32.066 104.591 61.624 7.979 21.473-5.498 42.579-1.503 57.794 6.099 23.284 51.020 32.953 55.52 59.425 0.531 3.602 3.299 6.311 6.391 11.555 5.642 9.536 3.028 24.644 3.931 38.345 2.885 40.231-3.384 76.632-12.118 103.778-8.165 25.505-20.692 43.748-31.264 67.202-21.313 46.887-21.457 69.051-41.347 98.189-13.802 20.161-17.297 30.068-35.97 27.88-29.781-3.48-71.043-64.833-105.053-65.959z" />
<glyph unicode="&#xe930;" d="M465.054 539.002c-20.177-0.574-41.097 50.33-48.247 47.403-1.992-2.343-4.749-5.031-7.958-11.31-6.896-10.338-16.888-26.791-25.919-42.547-7.188-12.59-7.947-22.705-5.7-30.435 5.477-15.050 25.085-20.049 22.615-25.181-3.453-6.656-24.936-5.791-40.895-22.227-21.266-23.444-37.888-57.943-42.68-77.54-7.034-27.917-15.459-44.258-12.325-79.835 1.217-15.22-3.719-20.729 6.858-31.747 9.27-9.886 24.83-21.648 41.479-36.332 17.536-15.22 59.175-44.13 63.855-52.2 5.036-8.255 7.262-32.512 4.367-38.281-2.736-5.753-31.099-12.351-30.913-12.351-0.186 0 22.859-29.606 27.683-34.424 4.648-4.643 23.683-24.724 104.644-9.865 47.987 8.739 96.84 31.89 104.277 61.682 6.455 20.782-6.805 42.574-2.842 57.703 6.088 23.237 52.418 32.948 56.901 59.382 0.542 3.591 3.384 6.29 6.465 11.507 5.652 9.621 2.97 24.681 3.921 38.324 3.049 40.358-3.32 76.621-12.059 103.677-8.176 25.436-20.681 43.652-31.232 67.069-21.271 46.813-21.489 69.008-41.4 98.057-13.292 19.258-17.637 28.358-35.673 26.121-29.346-3.57-71.277-65.545-105.223-66.65z" />
<glyph unicode="&#xe931;" d="M465.006 536.239c-19.975-0.552-39.96 49.475-47.456 47.923-2.067-1.169-5.047-4.032-8.431-9.392-7.273-10.067-17.435-27.38-26.137-42.733-7.156-12.617-7.629-22.572-4.983-29.999 5.945-15.454 26.785-20.262 24.31-25.234-3.597-6.8-26.185-5.652-42.983-22.78-22.031-23.205-38.085-57.73-42.797-76.881-7.081-27.938-15.571-44.215-12.304-79.723 1.227-14.019-4-20.432 6.54-31.545 9.18-9.934 24.974-21.871 41.58-36.518 17.494-15.172 59.329-44.146 63.983-52.189 5.015-8.224 7.374-32.73 4.5-38.462-2.704-5.727-31.040-12.5-30.86-12.5-0.181 0 22.742-29.319 27.556-34.138 4.638-4.632 23.598-24.559 104.421-9.738 48.030 8.734 97.563 31.704 103.953 61.741 4.93 20.097-8.123 42.574-4.181 57.618 6.083 23.194 53.82 32.948 58.293 59.345 0.531 3.575 3.474 6.263 6.529 11.448 5.674 9.706 2.906 24.719 3.91 38.308 3.214 40.481-3.257 76.6-11.995 103.576-8.176 25.361-20.671 43.556-31.2 66.931-21.228 46.733-21.51 68.96-41.442 97.913-12.792 18.354-17.993 26.647-35.381 24.368-28.926-3.65-71.526-66.251-105.425-67.34z" />
<glyph unicode="&#xe932;" d="M464.964 533.482c-19.773-0.537-38.828 48.619-46.67 48.439-2.136 0-5.339-3.028-8.904-7.475-7.655-9.801-17.988-27.965-26.355-42.924-7.124-12.644-7.305-22.44-4.276-29.564 6.412-15.852 28.496-20.485 26.004-25.292-3.74-6.943-27.428-5.52-45.060-23.332-22.801-22.971-38.292-57.523-42.924-76.228-7.124-27.965-15.672-44.167-12.288-79.607 1.248-12.824-4.276-20.129 6.231-31.343 9.084-9.977 25.112-22.084 41.676-36.688 17.451-15.146 59.483-44.173 64.116-52.184 4.983-8.192 7.48-32.948 4.632-38.648-2.672-5.695-30.987-12.644-30.812-12.644-0.181 0 22.615-29.032 27.423-33.84 4.638-4.632 23.507-24.4 104.192-9.621 48.083 8.728 98.312 31.529 103.656 61.805 3.384 19.412-9.44 42.563-5.52 57.528 6.051 23.146 55.212 32.942 59.658 59.302 0.542 3.565 3.559 6.237 6.587 11.4 5.695 9.791 2.853 24.751 3.921 38.287 0.569 6.53 0.894 14.129 0.894 21.804 0 29.185-4.692 57.274-13.363 83.554l0.538-1.883c-8.197 25.298-20.671 43.461-31.168 66.793-21.197 46.659-21.552 68.923-41.501 97.775-12.282 17.451-18.344 24.936-35.083 22.62-28.496-3.745-71.771-66.968-105.606-68.036z" />
<glyph unicode="&#xe933;" d="M831.143 247.169c11.353-16.479-0.361-37.904 7.873-51.084 13.552-21.606 40.831-43.397 51.265-49.443 7.512-4.574 18.126-8.967 17.765-22.339-0.552-15.194-8.054-19.226-12.266-23.438-8.425-8.42-50.904-29.479-79.107-48.704-35.529-24.352-47.79-35.152-59.329-46.691-17.94-17.945-34.977-23.991-62.256-23.991s-39.551 5.674-47.976 13.185c-8.415 7.321-17.754 26.004-16.84 53.831 0.728 27.651 9.525 52.922 13.727 95.953 1.838 18.493 1.652 41.378 1.652 61.704 0 25.638 0.361 47.424 5.865 50.723 9.886 6.226 12.086 6.593 23.8 6.593s17.026-0.738 20.878-4.579c3.66-3.66 2.199-12.080 0.914-23.991-1.1-11.9 4.574-15.746 10.253-20.692 5.674-4.76 10.811-10.8 28.751-12.272 17.951-1.28 24.538 1.652 32.964 6.959 8.415 5.312 20.315 14.832 24.713 20.325 4.213 5.312 14.652 23.624 16.665 23.624 1.827 0.011 13.919 4.218 20.692-5.674z" />
<glyph unicode="&#xe934;" d="M831.143 247.169c11.353-16.479-0.361-37.904 7.873-51.084 13.552-21.606 40.831-43.397 51.265-49.443 7.512-4.574 18.126-8.967 17.765-22.339-0.552-15.194-8.054-19.226-12.266-23.438-8.425-8.42-51.175-29.383-79.5-48.343-35.306-23.826-48.072-34.424-59.818-45.522-17.579-17.143-34.116-23.104-60.822-22.934-26.477 0.117-38.441 5.546-46.824 13.015-8.394 7.289-17.627 25.346-16.819 52.338 0.521 27.593 9.408 52.593 13.366 94.805 1.689 18.763 1.036 41.463 0.85 61.991-0.197 25.606-0.186 47.365 5.302 50.665 9.886 6.216 12.086 6.593 23.8 6.593s17.037-0.749 20.878-4.579c3.788-3.788 1.95-12.426 0.521-23.922-1.599-11.841 3.713-16.495 9.647-21.887 5.955-5.238 11.422-11.379 29.33-12.776 18.397-1.222 25.473 2.114 33.989 7.905 8.394 5.61 19.767 15.008 24.187 20.772 4.17 5.424 14.567 23.869 16.58 23.869 1.833 0 13.924 4.207 20.697-5.684z" />
<glyph unicode="&#xe935;" d="M831.143 247.169c11.353-16.479-0.361-37.904 7.873-51.084 13.552-21.606 40.831-43.397 51.265-49.443 7.512-4.574 18.126-8.967 17.765-22.339-0.552-15.194-8.054-19.226-12.266-23.438-8.425-8.42-51.445-29.298-79.893-47.971-35.099-23.311-48.364-33.707-60.317-44.369-17.212-16.33-33.256-22.211-59.382-21.877-25.67 0.239-37.341 5.419-45.687 12.851-8.351 7.251-17.483 24.681-16.787 50.829 0.313 27.545 9.297 52.279 12.999 93.658 1.557 19.045 0.414 41.548 0.053 62.277-0.382 25.579-0.738 47.312 4.744 50.611 9.886 6.205 12.086 6.593 23.8 6.593s17.048-0.754 20.878-4.579c3.921-3.915 1.7-12.76 0.122-23.858-2.104-11.794 2.842-17.249 9.047-23.088 6.226-5.716 12.038-11.942 29.925-13.276 18.843-1.174 26.397 2.577 35.009 8.845 8.362 5.907 19.204 15.194 23.656 21.218 4.138 5.53 14.487 24.118 16.495 24.118 1.838 0.005 13.929 4.213 20.702-5.679z" />
<glyph unicode="&#xe936;" d="M831.143 247.169c11.353-16.479-0.361-37.904 7.873-51.084 13.552-21.606 40.831-43.397 51.265-49.443 7.512-4.574 18.126-8.967 17.765-22.339-0.552-15.194-8.054-19.226-12.266-23.438-8.425-8.42-51.7-29.202-80.287-47.605-34.892-22.785-48.64-32.985-60.811-43.206-16.84-15.528-32.384-21.324-57.937-20.83-24.873 0.356-36.231 5.291-44.545 12.691-8.309 7.214-17.35 24.023-16.766 49.331 0.106 27.486 9.19 51.95 12.638 92.51 1.424 19.321-0.186 41.633-0.738 62.559-0.579 25.553-1.286 47.259 4.181 50.558 9.886 6.2 12.086 6.593 23.8 6.593s17.058-0.765 20.878-4.579c4.048-4.048 1.45-13.1-0.271-23.794-2.603-11.74 1.971-18.004 8.447-24.288 6.497-6.189 12.638-12.505 30.504-13.78 19.289-1.121 27.338 3.044 36.034 9.785 8.34 6.216 18.647 15.385 23.13 21.675 4.096 5.636 14.402 24.363 16.415 24.363 1.827 0.005 13.919 4.213 20.692-5.679z" />
<glyph unicode="&#xe937;" d="M831.143 247.169c11.353-16.479-0.361-37.904 7.873-51.084 13.552-21.606 40.831-43.397 51.265-49.443 7.512-4.574 18.126-8.967 17.765-22.339-0.552-15.194-8.054-19.226-12.266-23.438-8.425-8.42-51.971-29.107-80.685-47.238-34.674-22.27-48.922-32.262-61.3-42.042-16.49-14.721-31.534-20.437-56.508-19.778-24.060 0.478-35.12 5.164-43.402 12.521-8.271 7.177-17.212 23.364-16.734 47.828-0.106 27.428 9.079 51.637 12.277 91.368 1.275 19.592-0.807 41.713-1.546 62.841-0.77 25.531-1.827 47.206 3.634 50.505 9.886 6.189 12.086 6.593 23.8 6.593s17.069-0.77 20.878-4.579c4.17-4.176 1.206-13.44-0.653-23.731-3.124-11.682 1.089-18.748 7.836-25.489 6.763-6.667 13.249-13.074 31.088-14.28 19.746-1.062 28.273 3.512 37.065 10.731 8.309 6.524 18.083 15.565 22.599 22.121 4.069 5.748 14.317 24.612 16.33 24.612 1.822 0.005 13.913 4.213 20.687-5.679z" />
<glyph unicode="&#xe938;" d="M831.143 247.169c11.353-16.479-0.361-37.904 7.873-51.084 13.552-21.606 40.831-43.397 51.265-49.443 7.512-4.574 18.126-8.967 17.765-22.339-0.552-15.194-8.054-19.226-12.266-23.438-8.425-8.42-52.232-29.022-81.078-46.871-34.467-21.744-49.204-31.545-61.799-40.879-16.113-13.913-30.669-19.544-55.063-18.716-23.263 0.59-34.010 5.031-42.25 12.357-8.25 7.145-17.079 22.7-16.713 46.324-0.324 27.375 8.973 51.318 11.9 90.226 1.153 19.863-1.413 41.793-2.332 63.127-0.956 25.5-2.375 47.148 3.071 50.447 9.886 6.178 12.086 6.593 23.8 6.593s17.079-0.781 20.878-4.579c4.308-4.303 0.967-13.78-1.057-23.667-3.612-11.624 0.228-19.502 7.241-26.684 7.044-7.14 13.86-13.637 31.678-14.784 20.182-1.004 29.197 3.979 38.079 11.671 8.293 6.821 17.536 15.751 22.068 22.567 4.027 5.86 14.237 24.862 16.251 24.862 1.827-0.005 13.919 4.202 20.692-5.69z" />
<glyph unicode="&#xe939;" d="M831.143 247.169c11.353-16.479-0.361-37.904 7.873-51.084 13.552-21.606 40.831-43.397 51.265-49.443 7.512-4.574 18.126-8.967 17.765-22.339-0.552-15.194-8.054-19.226-12.266-23.438-8.425-8.42-52.503-28.926-81.471-46.505-34.26-21.223-49.49-30.817-62.288-39.721-15.751-13.111-29.808-18.657-53.634-17.669-22.456 0.717-32.91 4.909-41.107 12.192-8.208 7.108-16.941 22.047-16.686 44.826-0.531 27.322 8.861 50.999 11.539 89.084 1.004 20.145-2.035 41.878-3.134 63.414-1.153 25.468-2.927 47.089 2.513 50.388 9.886 6.168 12.086 6.593 23.8 6.593s17.090-0.792 20.878-4.579c4.431-4.431 0.717-14.115-1.45-23.598-4.117-11.576-0.632-20.251 6.63-27.89 7.326-7.618 14.487-14.211 32.268-15.289 20.639-0.951 30.143 4.452 39.105 12.617 8.261 7.124 16.973 15.927 21.531 23.013 3.995 5.971 14.163 25.112 16.176 25.112 1.833 0 13.924 4.207 20.697-5.684z" />
<glyph unicode="&#xe93a;" d="M831.143 247.169c11.353-16.479-0.361-37.904 7.873-51.084 13.552-21.606 40.831-43.397 51.265-49.443 7.512-4.574 18.126-8.967 17.765-22.339-0.552-15.194-8.054-19.226-12.266-23.438-8.425-8.42-52.774-28.836-81.864-46.144-34.042-20.697-49.772-30.090-62.782-38.552-15.379-12.304-28.947-17.77-52.189-16.617-21.643 0.829-31.8 4.776-39.965 12.033-8.165 7.071-16.798 21.382-16.654 43.323-0.749 27.263 8.755 50.675 11.177 87.936 0.861 20.416-2.656 41.957-3.931 63.691-1.349 25.446-3.474 47.036 1.95 50.34 9.886 6.162 12.086 6.593 23.8 6.593s17.090-0.797 20.878-4.579c4.553-4.558 0.467-14.455-1.849-23.539-4.616-11.517-1.503-21.005 6.030-29.091 7.597-8.091 15.098-14.774 32.852-15.794 21.085-0.898 31.078 4.919 40.135 13.563 8.24 7.421 16.426 16.113 21.011 23.465 3.952 6.077 14.067 25.351 16.081 25.351 1.822 0.011 13.913 4.218 20.687-5.674z" />
<glyph unicode="&#xe93b;" d="M831.143 247.169c11.353-16.479-0.361-37.904 7.873-51.084 13.552-21.606 40.831-43.397 51.265-49.443 7.512-4.574 18.126-8.967 17.765-22.339-0.552-15.194-8.054-19.226-12.266-23.438-8.425-8.42-53.029-28.745-82.257-45.772-33.835-20.177-50.054-29.372-63.281-37.389-15.013-11.501-28.087-16.888-50.75-15.571-20.846 0.956-30.69 4.654-38.828 11.868-8.123 7.028-16.665 20.724-16.623 41.819-0.956 27.21 8.643 50.356 10.8 86.794 0.738 20.692-3.257 42.042-4.723 63.977-1.535 25.415-4.027 46.983 1.392 50.282 9.886 6.152 12.086 6.593 23.8 6.593s17.101-0.807 20.878-4.579c4.691-4.686 0.218-14.795-2.231-23.47-5.137-11.464-2.385-21.76 5.419-30.286 7.873-8.569 15.709-15.348 33.431-16.298 21.542-0.839 32.007 5.387 41.171 14.503 8.197 7.724 15.852 16.293 20.463 23.911 3.921 6.189 13.998 25.601 16.012 25.601 1.827 0.005 13.919 4.213 20.692-5.679z" />
<glyph unicode="&#xe93c;" d="M831.143 247.169c11.353-16.479-0.361-37.904 7.873-51.084 13.552-21.606 40.831-43.397 51.265-49.443 7.512-4.574 18.126-8.967 17.765-22.339-0.552-15.194-8.054-19.226-12.266-23.438-8.425-8.42-53.299-28.655-82.656-45.405-33.617-19.661-50.346-28.655-63.77-36.231-14.652-10.694-27.226-15.99-49.315-14.508-20.033 1.073-29.58 4.526-37.676 11.698-8.101 6.991-16.527 20.070-16.601 40.321-1.163 27.157 8.526 50.038 10.439 85.652 0.59 20.963-3.878 42.122-5.53 64.264-1.721 25.383-4.574 46.925 0.839 50.224 9.886 6.141 12.086 6.593 23.8 6.593s17.111-0.813 20.878-4.579c4.813-4.813-0.032-15.135-2.624-23.407-5.636-11.406-3.257-22.503 4.813-31.487 8.144-9.047 16.32-15.911 34.021-16.803 21.977-0.786 32.932 5.854 42.186 15.443 8.176 8.032 15.294 16.484 19.943 24.368 3.878 6.301 13.903 25.845 15.916 25.845 1.838 0 13.929 4.207 20.702-5.684z" />
<glyph unicode="&#xe93d;" d="M831.143 247.169c11.353-16.479-0.361-37.904 7.873-51.084 13.552-21.606 40.831-43.397 51.265-49.443 7.512-4.574 18.126-8.967 17.765-22.339-0.552-15.194-8.054-19.226-12.266-23.438-8.425-8.42-53.56-28.56-83.038-45.044-33.42-19.135-50.633-27.922-64.28-35.067-14.28-9.886-26.366-15.109-47.886-13.456-19.226 1.19-28.469 4.393-36.523 11.533-8.064 6.965-16.394 19.412-16.569 38.823-1.381 27.099 8.425 49.714 10.067 84.505 0.467 21.239-4.484 42.202-6.316 64.541-1.918 25.356-5.126 46.871 0.282 50.17 9.886 6.131 12.086 6.593 23.8 6.593s17.122-0.823 20.878-4.579c4.941-4.946-0.282-15.47-3.017-23.348-6.141-11.353-4.117-23.252 4.213-32.682 8.425-9.52 16.936-16.484 34.605-17.308 22.434-0.728 33.877 6.316 43.217 16.389 8.144 8.33 14.731 16.67 19.412 24.814 3.841 6.407 13.823 26.095 15.831 26.095 1.827 0.011 13.919 4.218 20.692-5.674z" />
<glyph unicode="&#xe93e;" d="M831.143 247.169c11.353-16.479-0.361-37.904 7.873-51.084 13.552-21.606 40.831-43.397 51.265-49.443 7.512-4.574 18.126-8.967 17.765-22.339-0.552-15.194-8.054-19.226-12.266-23.438-8.425-8.42-53.831-28.469-83.442-44.672-33.203-18.615-50.904-27.205-64.753-33.904-13.924-9.084-25.516-14.221-46.452-12.41-18.418 1.312-27.359 4.271-35.381 11.374-8.022 6.922-16.251 18.748-16.538 37.314-1.588 27.051 8.309 49.395 9.7 83.362 0.324 21.515-5.095 42.287-7.119 64.827-2.114 25.335-5.674 46.813-0.282 50.117 9.886 6.12 12.086 6.593 23.8 6.593s17.133-0.834 20.878-4.579c5.073-5.068-0.521-15.815-3.416-23.284-6.641-11.3-4.988-24.007 3.612-33.883 8.696-9.998 17.547-17.048 35.184-17.807 22.881-0.68 34.812 6.779 44.242 17.329 8.123 8.633 14.184 16.846 18.875 25.261 3.809 6.524 13.749 26.344 15.762 26.344 1.827 0.005 13.919 4.213 20.692-5.679z" />
<glyph unicode="&#xe93f;" d="M831.143 247.169c11.353-16.479-0.361-37.904 7.873-51.084 13.552-21.606 40.831-43.397 51.265-49.443 7.512-4.574 18.126-8.967 17.765-22.339-0.552-15.194-8.054-19.226-12.266-23.438-8.425-8.42-54.091-28.379-83.835-44.311-32.985-18.089-51.196-26.472-65.252-32.735-13.552-8.282-24.644-13.334-45.012-11.358-17.605 1.434-26.249 4.138-34.239 11.204-7.979 6.89-16.113 18.089-16.506 35.816-1.796 26.987 8.197 49.071 9.339 82.22 0.175 21.786-5.716 42.367-7.915 65.109-2.306 25.308-6.226 46.765-0.839 50.064 9.886 6.115 12.086 6.593 23.8 6.593s17.143-0.845 20.878-4.579c5.201-5.201-0.77-16.15-3.809-23.221-7.151-11.236-5.865-24.751 2.996-35.083 8.973-10.476 18.168-17.611 35.784-18.307 23.327-0.622 35.737 7.246 45.262 18.269 8.091 8.941 13.621 17.032 18.344 25.707 3.777 6.63 13.664 26.594 15.677 26.594 1.827 0.005 13.919 4.213 20.692-5.679z" />
<glyph unicode="&#xe940;" d="M831.143 247.169c11.353-16.479-0.361-37.904 7.873-51.084 13.552-21.606 40.831-43.397 51.265-49.443 7.512-4.574 18.126-8.967 17.765-22.339-0.552-15.194-8.054-19.226-12.266-23.438-8.425-8.42-54.357-28.283-84.223-43.939-32.788-17.573-51.483-25.755-65.762-31.577-13.175-7.469-23.784-12.442-43.567-10.295-16.808 1.546-25.138 4.011-33.091 11.039-7.947 6.848-15.98 17.43-16.495 34.313-2.003 26.934 8.091 48.757 8.973 81.078 0.042 22.057-6.327 42.446-8.707 65.396-2.502 25.276-6.773 46.707-1.402 50.006 9.886 6.104 12.086 6.593 23.8 6.593s17.154-0.855 20.878-4.579c5.323-5.328-1.015-16.49-4.202-23.152-7.645-11.188-6.736-25.51 2.396-36.278 9.244-10.954 18.779-18.19 36.369-18.817 23.773-0.568 36.677 7.719 46.287 19.215 8.064 9.238 13.063 17.212 17.818 26.158 3.735 6.741 13.584 26.838 15.597 26.838 1.833-0.011 13.924 4.197 20.697-5.695z" />
<glyph unicode="&#xe941;" d="M831.143 247.169c11.353-16.479-0.361-37.904 7.873-51.084 13.552-21.606 40.831-43.397 51.265-49.443 7.512-4.574 18.126-8.967 17.765-22.339-0.552-15.194-8.054-19.226-12.266-23.438-8.425-8.42-54.628-28.198-84.616-43.578-32.581-17.048-51.764-25.032-66.251-30.414-12.814-6.667-22.928-11.555-42.138-9.244-16.001 1.663-24.039 3.878-31.949 10.875-7.915 6.811-15.842 16.771-16.468 32.815-2.21 26.881 7.979 48.428 8.611 79.925-0.096 22.339-6.943 42.537-9.504 65.683-2.699 25.25-7.326 46.648-1.96 49.947 9.886 6.099 12.086 6.593 23.8 6.593s17.159-0.861 20.878-4.579c5.456-5.456-1.264-16.83-4.595-23.088-8.144-11.135-7.597-26.259 1.796-37.49 9.515-11.422 19.39-18.748 36.948-19.316 24.23-0.515 37.612 8.181 47.312 20.161 8.043 9.541 12.511 17.393 17.287 26.605 3.703 6.848 13.499 27.088 15.512 27.088 1.838 0.005 13.929 4.213 20.702-5.679z" />
<glyph unicode="&#xe942;" d="M831.143 247.169c11.353-16.479-0.361-37.904 7.873-51.084 13.552-21.606 40.831-43.397 51.265-49.443 7.512-4.574 18.126-8.967 17.765-22.339-0.552-15.194-8.054-19.226-12.266-23.438-8.425-8.42-54.888-28.103-85.009-43.211-32.363-16.522-52.046-24.31-66.745-29.25-12.452-5.865-22.057-10.667-40.693-8.197-15.188 1.785-22.928 3.756-30.807 10.715-7.873 6.773-15.698 16.113-16.437 31.317-2.428 26.822 7.873 48.109 8.24 78.778-0.228 22.615-7.554 42.616-10.295 65.964-2.885 25.223-7.873 46.595-2.523 49.9 9.886 6.088 12.086 6.593 23.8 6.593s17.17-0.871 20.878-4.579c5.583-5.583-1.514-17.159-4.988-23.024-8.654-11.082-8.468-27.008 1.195-38.68 9.796-11.9 20.007-19.321 37.527-19.821 24.676-0.457 38.547 8.654 48.343 21.106 8.022 9.844 11.953 17.579 16.755 27.056 3.66 6.959 13.414 27.332 15.427 27.332 1.833-0.011 13.924 4.197 20.697-5.695z" />
<glyph unicode="&#xe943;" d="M831.143 247.169c11.353-16.479-0.361-37.904 7.873-51.084 13.552-21.606 40.831-43.397 51.265-49.443 7.512-4.574 18.126-8.967 17.765-22.339-0.552-15.194-8.054-19.226-12.266-23.438-8.425-8.42-55.159-28.012-85.402-42.839-32.156-16.006-52.338-23.582-67.234-28.092-12.086-5.052-21.207-9.775-39.264-7.14-14.391 1.902-21.818 3.628-29.665 10.545-7.836 6.741-15.565 15.454-16.405 29.808-2.635 26.769 7.761 47.79 7.873 77.636-0.372 22.891-8.165 42.696-11.103 66.251-3.071 25.191-8.415 46.542-3.071 49.841 9.886 6.077 12.086 6.593 23.8 6.593s17.18-0.882 20.878-4.579c5.716-5.711-1.753-17.504-5.387-22.96-9.153-11.018-9.339-27.757 0.59-39.88 10.067-12.378 20.617-19.884 38.122-20.325 25.122-0.398 39.482 9.121 49.358 22.041 7.99 10.147 11.395 17.765 16.229 27.508 3.623 7.066 13.334 27.577 15.348 27.577 1.833 0.005 13.924 4.213 20.697-5.679z" />
<glyph unicode="&#xe944;" d="M831.143 247.169c11.353-16.479-0.361-37.904 7.873-51.084 13.552-21.606 40.831-43.397 51.265-49.443 7.512-4.574 18.126-8.967 17.765-22.339-0.552-15.194-8.054-19.226-12.266-23.438-8.425-8.42-55.419-27.922-85.796-42.478-31.949-15.48-52.614-22.859-67.733-26.923-11.714-4.25-20.347-8.893-37.819-6.088-13.584 2.024-20.718 3.501-28.522 10.386-7.793 6.699-15.417 14.795-16.373 28.305-2.853 26.716 7.645 47.472 7.512 76.493-0.51 23.162-8.787 42.781-11.9 66.527-3.267 25.165-8.967 46.489-3.634 49.788 9.886 6.072 12.086 6.593 23.8 6.593s17.18-0.892 20.878-4.579c5.844-5.844-2.003-17.839-5.78-22.902-9.658-10.965-10.21-28.506-0.021-41.076 10.343-12.856 21.239-20.453 38.712-20.83 25.574-0.345 40.412 9.589 50.394 22.987 7.947 10.45 10.821 17.945 15.688 27.954 3.591 7.182 13.249 27.826 15.263 27.826 1.833 0.005 13.924 4.213 20.697-5.679z" />
<glyph unicode="&#xe945;" d="M831.143 247.169c11.353-16.479-0.361-37.904 7.873-51.084 13.552-21.606 40.831-43.397 51.265-49.443 7.512-4.574 18.126-8.967 17.765-22.339-0.552-15.194-8.054-19.226-12.266-23.438-8.425-8.42-55.685-27.826-86.194-42.112-31.742-14.96-52.896-22.137-68.233-25.765-11.353-3.442-19.475-8-36.379-5.036-12.782 2.141-19.608 3.368-27.37 10.221-7.772 6.662-15.294 14.131-16.352 26.806-3.060 26.658 7.544 47.148 7.14 75.351-0.643 23.433-9.392 42.861-12.691 66.814-3.453 25.138-9.515 46.431-4.191 49.73 9.886 6.061 12.086 6.593 23.8 6.593s17.191-0.903 20.878-4.579c5.966-5.971-2.252-18.184-6.173-22.833-10.157-10.917-11.071-29.261-0.622-42.282 10.625-13.329 21.839-21.021 39.291-21.329 26.020-0.297 41.347 10.051 51.424 23.932 7.926 10.742 10.274 18.126 15.162 28.395 3.549 7.289 13.169 28.076 15.178 28.076 1.833 0.005 13.924 4.213 20.697-5.679z" />
<glyph unicode="&#xe946;" d="M831.143 247.169c11.353-16.479-0.361-37.904 7.873-51.084 13.552-21.606 40.831-43.397 51.265-49.443 7.512-4.574 18.126-8.967 17.765-22.339-0.552-15.194-8.054-19.226-12.266-23.438-8.425-8.42-55.956-27.741-86.587-41.745-31.524-14.439-53.188-21.409-68.721-24.596-10.986-2.64-18.625-7.119-34.945-3.984-11.974 2.263-18.508 3.235-26.233 10.056-7.73 6.625-15.162 13.478-16.32 25.303-3.267 26.61 7.427 46.829 6.763 74.209-0.77 23.709-10.003 42.946-13.478 67.096-3.655 25.117-10.072 46.377-4.755 49.682 9.886 6.056 12.086 6.593 23.8 6.593s17.202-0.908 20.878-4.579c6.099-6.093-2.502-18.519-6.566-22.769-10.667-10.853-11.942-30.005-1.222-43.482 10.896-13.807 22.456-21.584 39.886-21.829 26.466-0.239 42.282 10.513 52.439 24.873 7.894 11.050 9.711 18.312 14.63 28.852 3.517 7.4 13.084 28.32 15.098 28.32 1.833-0.011 13.924 4.197 20.697-5.695z" />
<glyph unicode="&#xe947;" d="M831.143 247.169c11.353-16.479-0.361-37.904 7.873-51.084 13.552-21.606 40.831-43.397 51.265-49.443 7.512-4.574 18.126-8.967 17.765-22.339-0.552-15.194-8.054-19.226-12.266-23.438-8.425-8.42-56.216-27.646-86.98-41.378-31.317-13.913-53.464-20.692-69.215-23.438-10.614-1.833-17.754-6.226-33.505-2.927-11.167 2.375-17.398 3.108-25.091 9.881-7.687 6.593-15.013 12.819-16.288 23.805-3.485 26.551 7.315 46.51 6.401 73.056-0.914 23.991-10.614 43.036-14.28 67.388-3.852 25.085-10.625 46.324-5.312 49.623 9.886 6.046 12.086 6.593 23.8 6.593s17.212-0.919 20.878-4.579c6.226-6.226-2.752-18.859-6.965-22.705-11.167-10.8-12.814-30.759-1.827-44.672 11.167-14.285 23.067-22.158 40.465-22.339 26.913-0.186 43.217 10.981 53.464 25.813 7.873 11.353 9.153 18.493 14.099 29.298 3.474 7.512 12.999 28.57 15.013 28.57 1.843 0 13.934 4.207 20.708-5.684z" />
<glyph unicode="&#xe948;" d="M192.469 218.976c-16.484-11.9-58.229-10.8-68.849-24.719-10.439-13.919 0.367-34.058 0.181-71.409 0-15.932-2.747-28.012-4.574-37.723-2.566-12.272-4.213-20.872 0.914-29.659 9.334-15.565 24.352-19.412 110.233-37.357 45.958-9.52 89.355-34.239 118.467-36.624 29.112-2.194 35.344 7.512 53.103 23.258 17.584 15.746 23.258 10.8 22.705 45.411-0.547 34.424-22.705 44.677-47.79 84.414-25.085 39.732-29.112 47.057-45.777 73.423-16.66 26.004-49.623 73.242-68.482 73.795-15.018 0.361-23.438-7.687-32.778-17.212s-20.872-33.697-37.352-45.596z" />
<glyph unicode="&#xe949;" d="M192.734 218.243c-16.267-11.958-57.156-9.631-68.822-24.193-10.561-13.77 0.579-33.76 0.25-71.091-0.064-15.847-2.932-27.678-4.925-37.84-2.64-12.383-4.266-20.857 0.887-29.542 9.626-15.677 24.655-18.121 110.514-36.039 45.931-9.499 87.846-33.835 117.856-35.891 28.448-2.013 34.499 7.198 52.040 22.79 17.542 15.757 22.955 10.88 22.53 44.268-0.186 34.387-21.122 44.12-46.202 83.851-25.085 39.732-29.112 47.057-45.777 73.423-16.66 26.004-49.623 73.242-68.482 73.795-15.018 0.361-23.438-7.687-32.778-17.212-9.345-9.515-20.74-34.27-37.091-46.319z" />
<glyph unicode="&#xe94a;" d="M193 217.505c-16.059-12.011-56.088-8.457-68.796-23.656-10.694-13.621 0.786-33.468 0.313-70.767-0.127-15.767-3.113-27.338-5.275-37.963-2.709-12.505-4.324-20.835 0.861-29.42 9.924-15.788 24.958-16.83 110.796-34.717 45.905-9.488 86.337-33.442 117.245-35.158 27.779-1.833 33.654 6.885 50.978 22.317 17.504 15.767 22.652 10.954 22.355 43.121 0.165 34.355-19.539 43.562-44.619 83.299-25.085 39.732-29.112 47.057-45.777 73.423-16.66 26.004-49.623 73.242-68.482 73.795-15.018 0.361-23.438-7.687-32.778-17.212-9.339-9.52-20.602-34.865-36.82-47.063z" />
<glyph unicode="&#xe94b;" d="M193.26 216.777c-15.847-12.064-55.010-7.283-68.764-23.13-10.821-13.472 0.999-33.176 0.372-70.448-0.191-15.682-3.299-27.003-5.621-38.079-2.784-12.622-4.372-20.819 0.834-29.309 10.216-15.889 25.255-15.534 111.083-33.394 45.878-9.467 84.823-33.038 116.629-34.424 27.109-1.652 32.815 6.571 49.915 21.855 17.473 15.773 22.349 11.018 22.185 41.973 0.521 34.313-17.956 43.004-43.041 82.736s-29.112 47.057-45.777 73.423c-16.66 26.004-49.623 73.242-68.482 73.795-15.018 0.361-23.438-7.687-32.778-17.212-9.334-9.515-20.453-35.444-36.555-47.785z" />
<glyph unicode="&#xe94c;" d="M193.531 216.044c-15.64-12.123-53.942-6.115-68.737-22.594-10.954-13.334 1.211-32.884 0.441-70.129-0.255-15.608-3.48-26.663-5.971-38.196-2.858-12.744-4.431-20.798 0.802-29.181 10.513-16.012 25.563-14.248 111.364-32.087 45.851-9.445 83.315-32.629 116.018-33.691 26.44-1.461 31.97 6.263 48.853 21.388 17.435 15.783 22.047 11.098 22.015 40.831 0.877 34.281-16.373 42.446-41.458 82.183-25.085 39.732-29.112 47.057-45.777 73.423-16.66 26.004-49.623 73.242-68.482 73.795-15.018 0.361-23.438-7.687-32.778-17.212s-20.325-36.039-36.289-48.529z" />
<glyph unicode="&#xe94d;" d="M193.792 215.311c-15.427-12.181-52.874-4.946-68.711-22.062-11.076-13.18 1.424-32.592 0.505-69.816-0.319-15.512-3.66-26.318-6.316-38.313-2.927-12.861-4.484-20.782 0.776-29.070 10.805-16.113 25.866-12.952 111.651-30.764 45.82-9.424 81.801-32.22 115.407-32.958 25.771-1.28 31.125 5.95 47.79 20.92 17.393 15.794 21.744 11.172 21.834 39.689 1.232 34.239-14.79 41.888-39.87 81.62-25.085 39.732-29.112 47.057-45.777 73.423-16.66 26.004-49.623 73.242-68.482 73.795-15.018 0.361-23.438-7.687-32.778-17.212-9.339-9.515-20.187-36.613-36.029-49.251z" />
<glyph unicode="&#xe94e;" d="M194.063 214.578c-15.215-12.229-51.801-3.767-68.684-21.531-11.204-13.037 1.626-32.299 0.563-69.486-0.382-15.438-3.846-25.988-6.662-38.435-3.002-12.978-4.542-20.761 0.749-28.947 11.098-16.224 26.169-11.661 111.933-29.441 45.798-9.408 80.292-31.821 114.785-32.225 25.106-1.1 30.286 5.642 46.733 20.453 17.356 15.804 21.441 11.241 21.659 38.547 1.594 34.201-13.201 41.325-38.287 81.062-25.085 39.732-29.112 47.057-45.777 73.423-16.66 26.004-49.623 73.242-68.482 73.795-15.018 0.361-23.438-7.687-32.778-17.212-9.334-9.53-20.044-37.219-35.753-50z" />
<glyph unicode="&#xe94f;" d="M194.328 213.85c-15.002-12.288-50.728-2.598-68.658-21.005-11.331-12.888 1.843-32.002 0.632-69.173-0.446-15.353-4.027-25.638-7.012-38.552-3.076-13.1-4.595-20.745 0.722-28.83 11.39-16.33 26.466-10.37 112.219-28.124 45.766-9.398 78.783-31.423 114.174-31.497 24.442-0.914 29.441 5.328 45.671 19.985 17.318 15.815 21.138 11.321 21.489 37.405 1.95 34.164-11.624 40.767-36.703 80.499-25.085 39.732-29.112 47.057-45.777 73.423-16.66 26.004-49.623 73.242-68.482 73.795-15.018 0.361-23.438-7.687-32.778-17.212-9.345-9.515-19.916-37.787-35.498-50.712z" />
<glyph unicode="&#xe950;" d="M194.588 213.112c-14.795-12.341-49.66-1.429-68.626-20.474-11.464-12.739 2.051-31.715 0.691-68.844-0.51-15.273-4.207-25.308-7.358-38.674-3.15-13.217-4.648-20.724 0.696-28.708 11.682-16.447 26.769-9.084 112.501-26.806 45.74-9.376 77.274-31.019 113.564-30.764 23.768-0.733 28.602 5.015 44.603 19.523 17.287 15.82 20.835 11.39 21.313 36.252 2.311 34.132-10.035 40.21-35.12 79.947-25.085 39.732-29.112 47.057-45.777 73.423-16.66 26.004-49.623 73.242-68.482 73.795-15.018 0.361-23.438-7.687-32.778-17.212-9.334-9.52-19.767-38.382-35.227-51.456z" />
<glyph unicode="&#xe951;" d="M194.854 212.384c-14.583-12.394-48.587-0.255-68.599-19.937-11.592-12.601 2.263-31.423 0.765-68.53-0.579-15.183-4.399-24.963-7.708-38.791-3.225-13.339-4.707-20.708 0.669-28.591 11.974-16.553 27.072-7.793 112.783-25.489 45.708-9.355 75.76-30.615 112.947-30.031 23.104-0.547 27.763 4.712 43.541 19.056 17.249 15.826 20.538 11.464 21.138 35.11 2.662 34.095-8.452 39.652-33.532 79.383-25.085 39.732-29.112 47.057-45.777 73.423-16.66 26.004-49.623 73.242-68.482 73.795-15.018 0.361-23.438-7.687-32.778-17.212-9.339-9.52-19.64-38.961-34.966-52.184z" />
<glyph unicode="&#xe952;" d="M195.12 211.651c-14.375-12.452-47.514 0.914-68.573-19.406-11.719-12.458 2.47-31.125 0.823-68.211-0.643-15.109-4.579-24.628-8.059-38.908-3.294-13.456-4.76-20.692 0.643-28.469 12.272-16.665 27.375-6.502 113.069-24.171 45.687-9.339 74.252-30.217 112.336-29.303 22.429-0.361 26.918 4.399 42.483 18.588 17.212 15.836 20.235 11.539 20.963 33.968 3.023 34.063-6.864 39.094-31.949 78.831-25.085 39.732-29.112 47.057-45.777 73.423-16.66 26.004-49.623 73.242-68.482 73.795-15.018 0.361-23.438-7.687-32.778-17.212s-19.502-39.556-34.701-52.922z" />
<glyph unicode="&#xe953;" d="M195.391 210.918c-14.163-12.505-46.446 2.088-68.546-18.88-11.847-12.304 2.683-30.839 0.887-67.887-0.701-15.024-4.76-24.288-8.404-39.030-3.368-13.579-4.813-20.671 0.616-28.352 12.559-16.771 27.672-5.211 113.351-22.854 45.655-9.323 72.738-29.808 111.72-28.565 21.765-0.186 26.073 4.085 41.421 18.121 17.175 15.842 19.927 11.608 20.793 32.82 3.379 34.021-5.286 38.536-30.366 78.268-25.085 39.732-29.112 47.057-45.777 73.423-16.66 26.004-49.623 73.242-68.482 73.795-15.018 0.361-23.438-7.687-32.778-17.212-9.345-9.515-19.364-40.13-34.435-53.645z" />
<glyph unicode="&#xe954;" d="M195.656 210.184c-13.95-12.564-45.373 3.257-68.52-18.349-11.974-12.155 2.89-30.541 0.951-67.563-0.77-14.939-4.946-23.959-8.75-39.153-3.442-13.695-4.871-20.655 0.584-28.23 12.851-16.888 27.98-3.921 113.638-21.537 45.628-9.302 71.229-29.404 111.109-27.832 21.096 0 25.234 3.772 40.358 17.653 17.138 15.852 19.629 11.682 20.617 31.678 3.735 33.978-3.697 37.973-28.783 77.71-25.085 39.732-29.112 47.057-45.777 73.423-16.66 26.004-49.623 73.242-68.482 73.795-15.018 0.361-23.438-7.687-32.778-17.212-9.345-9.52-19.231-40.725-34.169-54.383z" />
<glyph unicode="&#xe955;" d="M195.917 209.451c-13.743-12.612-44.3 4.431-68.493-17.818-12.102-12.011 3.102-30.244 1.015-67.245-0.834-14.859-5.126-23.608-9.1-39.269-3.517-13.818-4.93-20.633 0.558-28.113 13.148-16.994 28.283-2.63 113.919-20.219 45.602-9.281 69.72-29.006 110.498-27.099 20.426 0.181 24.389 3.458 39.296 17.18 17.101 15.863 19.327 11.756 20.442 30.53 4.096 33.952-2.114 37.421-27.2 77.152s-29.112 47.057-45.777 73.423c-16.66 26.004-49.623 73.242-68.482 73.795-15.018 0.361-23.438-7.687-32.778-17.212-9.334-9.509-19.082-41.299-33.899-55.106z" />
<glyph unicode="&#xe956;" d="M196.182 208.718c-13.531-12.67-43.232 5.605-68.461-17.281-12.229-11.868 3.315-29.962 1.084-66.931-0.898-14.774-5.312-23.274-9.451-39.386-3.586-13.934-4.983-20.617 0.531-27.996 13.44-17.106 28.581-1.339 114.201-18.902 45.575-9.265 68.211-28.602 109.887-26.366 19.757 0.361 23.55 3.145 38.228 16.713 17.069 15.873 19.029 11.831 20.272 29.388 4.446 33.909-0.537 36.858-25.616 76.594-25.085 39.732-29.112 47.057-45.777 73.423-16.66 26.004-49.623 73.242-68.482 73.795-15.018 0.361-23.438-7.687-32.778-17.212-9.339-9.509-18.949-41.883-33.638-55.839z" />
<glyph unicode="&#xe957;" d="M196.448 207.985c-13.318-12.729-42.159 6.773-68.435-16.755-12.362-11.714 3.527-29.659 1.142-66.602-0.962-14.694-5.493-22.934-9.796-39.508-3.66-14.057-5.036-20.602 0.505-27.874 13.733-17.212 28.884-0.048 114.488-17.584 45.549-9.244 66.697-28.198 109.271-25.632 19.088 0.552 22.7 2.837 37.171 16.251 17.026 15.884 18.721 11.905 20.097 28.246 4.808 33.872 1.052 36.3-24.033 76.031s-29.112 47.057-45.777 73.423c-16.66 26.004-49.623 73.242-68.482 73.795-15.018 0.361-23.438-7.687-32.778-17.212-9.339-9.515-18.811-42.473-33.373-56.577z" />
<glyph unicode="&#xe958;" d="M196.719 207.257c-13.111-12.782-41.092 7.947-68.408-16.224-12.489-11.576 3.735-29.372 1.211-66.288-1.025-14.614-5.679-22.594-10.147-39.625-3.735-14.174-5.089-20.58 0.478-27.757 14.025-17.324 29.186 1.243 114.769-16.267 45.517-9.222 65.189-27.795 108.655-24.905 18.418 0.733 21.861 2.529 36.108 15.788 16.989 15.889 18.423 11.974 19.922 27.099 5.164 33.84 2.635 35.747-22.45 75.479s-29.112 47.057-45.777 73.423c-16.66 26.004-49.623 73.242-68.482 73.795-15.018 0.361-23.438-7.687-32.778-17.212-9.339-9.515-18.673-43.062-33.102-57.305z" />
<glyph unicode="&#xe959;" d="M196.984 206.524c-12.899-12.835-40.018 9.121-68.381-15.693-12.617-11.427 3.947-29.080 1.27-65.964-1.089-14.529-5.86-22.254-10.492-39.742-3.809-14.29-5.148-20.559 0.446-27.635 14.322-17.435 29.489 2.534 115.056-14.944 45.49-9.206 63.675-27.386 108.044-24.171 17.749 0.919 21.021 2.215 35.046 15.321 16.952 15.9 18.121 12.054 19.746 25.956 5.525 33.803 4.218 35.184-20.862 74.921-25.085 39.732-29.112 47.057-45.777 73.423-16.66 26.004-49.623 73.242-68.482 73.795-15.018 0.361-23.438-7.687-32.778-17.212-9.339-9.53-18.54-43.663-32.836-58.054z" />
<glyph unicode="&#xe95a;" d="M197.245 205.791c-12.691-12.893-38.945 10.29-68.355-15.162-12.744-11.278 4.16-28.783 1.333-65.64-1.153-14.45-6.040-21.919-10.843-39.864-3.883-14.413-5.201-20.543 0.425-27.524 14.609-17.542 29.787 3.83 115.338-13.621 45.469-9.185 62.166-26.987 107.428-23.433 17.085 1.094 20.177 1.902 33.984 14.848 16.92 15.911 17.813 12.123 19.576 24.814 5.876 33.76 5.801 34.626-19.279 74.358-25.085 39.732-29.112 47.057-45.777 73.423-16.66 26.004-49.623 73.242-68.482 73.795-15.018 0.361-23.438-7.687-32.778-17.212-9.334-9.525-18.397-44.242-32.57-58.782z" />
<glyph unicode="&#xe95b;" d="M197.51 205.063c-12.479-12.952-37.872 11.459-68.323-14.63-12.872-11.14 4.367-28.49 1.402-65.327-1.217-14.365-6.226-21.579-11.188-39.981-3.958-14.529-5.254-20.522 0.393-27.401 14.907-17.648 30.095 5.121 115.625-12.298 45.437-9.18 60.652-26.589 106.811-22.705 16.415 1.28 19.337 1.594 32.921 14.381 16.883 15.927 17.515 12.197 19.401 23.667 6.231 33.729 7.39 34.069-17.696 73.805-25.085 39.732-29.112 47.057-45.777 73.423-16.66 26.004-49.623 73.242-68.482 73.795-15.018 0.361-23.438-7.687-32.778-17.212-9.339-9.53-18.264-44.837-32.31-59.515z" />
<glyph unicode="&#xe95c;" d="M197.776 204.325c-12.272-12.999-36.804 12.638-68.302-14.094-12.999-10.986 4.579-28.204 1.466-65.003-1.28-14.28-6.412-21.239-11.539-40.103-4.027-14.646-5.307-20.506 0.367-27.285 15.194-17.759 30.398 6.412 115.906-10.981 45.411-9.159 59.143-26.185 106.201-21.977 15.746 1.466 18.493 1.28 31.864 13.919 16.846 15.927 17.212 12.266 19.226 22.519 6.593 33.691 8.973 33.511-16.113 73.242s-29.112 47.057-45.777 73.423c-16.66 26.004-49.623 73.242-68.482 73.795-15.018 0.361-23.438-7.687-32.778-17.212-9.334-9.52-18.121-45.411-32.039-60.243z" />
<glyph unicode="&#xe95d;" d="M205.707 190.018c-10.88-11.539-46.489 3.464-63.303-9.228-12.033-8.904 6.099-20.113 3.628-53.082-0.988-12.527-9.727-14.838-6.099-32.151 2.805-13.021 5.769-12.691 10.715-18.625 13.515-15.826 10.386-4.287 87.368-19.783 40.72-8.245 53.246-23.577 95.618-19.783 14.174 1.317 16.814 1.153 28.682 12.527 15.167 14.174 7.416 11.209 9.068 20.272 5.769 30.169 1.153 35.444-21.43 71.213-22.583 35.774-20.607 37.75-35.439 61.327-14.838 23.247-35.28 65.614-52.258 65.943-13.35 0.329-21.101-6.927-29.505-15.502-8.415-8.564-14.684-49.942-27.046-63.127z" />
<glyph unicode="&#xe95e;" d="M206.456 189.79c-11.347-11.958-47.318 3.039-63.733-9.424-11.953-8.935 6.556-20.469 4.091-52.588-1.020-12.452-9.499-14.939-6.253-32.129 2.513-12.952 5.998-12.559 11.023-18.312 14.46-15.597 11.884-4.643 86.768-19.693 40.486-8.165 52.938-23.433 95.044-19.667 14.094 1.307 16.474 1.179 28.368 12.33 14.917 13.754 7.273 10.906 8.675 20.49 5.259 29.983 1.126 35.556-20.819 70.32-22.461 35.556-20.708 37.378-35.46 60.811-14.747 23.109-34.844 65.624-51.722 65.948-13.276 0.329-20.973-6.88-29.33-15.395-8.351-8.526-14.349-49.613-26.652-62.692z" />
<glyph unicode="&#xe95f;" d="M207.205 189.562c-11.815-12.378-48.141 2.614-64.163-9.621-11.873-8.967 7.018-20.83 4.558-52.104-1.047-12.378-9.265-15.050-6.407-32.108 2.221-12.888 6.226-12.431 11.331-18.004 15.401-15.364 13.382-4.999 86.173-19.603 40.247-8.085 52.625-23.295 94.471-19.544 14.009 1.286 16.134 1.195 28.050 12.128 14.668 13.324 7.129 10.598 8.293 20.702 4.744 29.792 1.1 35.673-20.219 69.417-22.328 35.349-20.809 37.012-35.471 60.307-14.662 22.966-34.409 65.64-51.185 65.97-13.191 0.329-20.851-6.837-29.155-15.31-8.303-8.463-14.030-49.246-26.275-62.23z" />
<glyph unicode="&#xe960;" d="M207.955 189.328c-12.277-12.792-48.97 2.199-64.588-9.812-11.799-8.999 7.469-21.186 5.020-51.61-1.078-12.298-9.031-15.162-6.556-32.092 1.923-12.814 6.449-12.293 11.634-17.685 16.352-15.13 14.885-5.366 85.572-19.518 40.008-8.006 52.317-23.152 93.902-19.428 13.924 1.275 15.794 1.222 27.736 11.937 14.418 12.899 6.981 10.29 7.905 20.915 4.229 29.606 1.068 35.79-19.608 68.525-22.206 35.131-20.915 36.64-35.487 59.797-14.572 22.827-33.973 65.651-50.649 65.98-13.116 0.329-20.724-6.795-28.985-15.215s-13.711-48.911-25.898-61.794z" />
<glyph unicode="&#xe961;" d="M208.704 189.094c-12.739-13.207-49.793 1.785-65.019-9.998-11.719-9.042 7.931-21.552 5.488-51.121-1.11-12.229-8.797-15.268-6.71-32.076 1.631-12.739 6.678-12.155 11.942-17.372 17.287-14.901 16.378-5.721 84.967-19.428 39.774-7.926 52.009-23.013 93.334-19.311 13.839 1.259 15.459 1.243 27.423 11.735 14.168 12.479 6.837 9.987 7.517 21.133 3.713 29.42 1.041 35.907-19.003 67.627-22.078 34.924-21.016 36.268-35.503 59.281-14.482 22.689-33.537 65.672-50.112 65.996-13.037 0.324-20.596-6.752-28.804-15.124s-13.393-48.555-25.521-61.342z" />
<glyph unicode="&#xe962;" d="M209.453 188.866c-13.207-13.626-50.622 1.36-65.444-10.195-11.64-9.074 8.388-21.903 5.95-50.627-1.142-12.155-8.564-15.374-6.864-32.055 1.339-12.675 6.906-12.027 12.25-17.058 18.232-14.668 17.882-6.088 84.366-19.337 39.54-7.857 51.695-22.881 92.765-19.194 13.754 1.243 15.114 1.264 27.104 11.539 13.919 12.049 6.688 9.674 7.124 21.345 3.203 29.229 1.009 36.018-18.397 66.735-21.946 34.706-21.117 35.901-35.513 58.771-14.391 22.551-33.102 65.683-49.575 66.007-12.952 0.324-20.474-6.715-28.629-15.034-8.155-8.325-13.069-48.215-25.138-60.896z" />
<glyph unicode="&#xe963;" d="M210.202 188.632c-13.674-14.046-51.451 0.946-65.874-10.38-11.56-9.111 8.845-22.264 6.417-50.139-1.169-12.075-8.335-15.48-7.012-32.039 1.047-12.601 7.129-11.889 12.553-16.739 19.178-14.434 19.38-6.444 83.766-19.252 39.307-7.772 51.387-22.727 92.192-19.072 13.674 1.222 14.779 1.286 26.791 11.342 13.664 11.624 6.54 9.371 6.736 21.558 2.688 29.043 0.983 36.135-17.786 65.837-21.818 34.494-21.223 35.529-35.529 58.261-14.306 22.413-32.666 65.704-49.039 66.023-12.872 0.324-20.347-6.672-28.448-14.939-8.112-8.282-12.76-47.875-24.766-60.461z" />
<glyph unicode="&#xe964;" d="M210.945 188.403c-14.136-14.466-52.274 0.526-66.304-10.577-11.48-9.143 9.302-22.626 6.88-49.65-1.206-12.006-8.101-15.587-7.166-32.023 0.754-12.527 7.358-11.756 12.856-16.426 20.123-14.2 20.883-6.8 83.171-19.157 39.068-7.698 51.079-22.594 91.629-18.955 13.584 1.211 14.434 1.307 26.466 11.14 13.419 11.199 6.396 9.068 6.354 21.77 2.173 28.862 0.951 36.252-17.186 64.944-21.691 34.281-21.319 35.158-35.54 57.751-14.216 22.27-32.23 65.72-48.497 66.039-12.798 0.319-20.224-6.635-28.278-14.854-8.054-8.224-12.431-47.52-24.384-60.004z" />
<glyph unicode="&#xe965;" d="M211.694 188.17c-14.604-14.88-53.098 0.106-66.729-10.763-11.406-9.18 9.759-22.987 7.342-49.161-1.232-11.926-7.868-15.693-7.315-32.002 0.462-12.463 7.586-11.624 13.169-16.113 21.064-13.966 22.376-7.161 82.566-19.072 38.834-7.623 50.765-22.456 91.055-18.843 13.504 1.201 14.099 1.333 26.153 10.949 13.169 10.768 6.253 8.755 5.966 21.983 1.657 28.671 0.924 36.369-16.575 64.046-21.568 34.069-21.425 34.791-35.551 57.241-14.131 22.132-31.795 65.731-47.966 66.044-12.718 0.324-20.097-6.587-28.103-14.753-8.011-8.17-12.123-47.169-24.012-59.557z" />
<glyph unicode="&#xe966;" d="M212.444 187.941c-15.061-15.3-53.921-0.324-67.16-10.96-11.326-9.206 10.216-23.348 7.809-48.667-1.259-11.852-7.639-15.804-7.469-31.986 0.17-12.389 7.815-11.491 13.472-15.799 22.009-13.738 23.879-7.517 81.965-18.981 38.6-7.544 50.457-22.307 90.486-18.721 13.419 1.185 13.754 1.355 25.84 10.742 12.92 10.349 6.104 8.457 5.578 22.195 1.142 28.49 0.892 36.486-15.969 63.154-21.441 33.856-21.526 34.419-35.567 56.731-14.046 21.999-31.359 65.752-47.429 66.065-12.638 0.313-19.969-6.55-27.927-14.662-7.963-8.123-11.799-46.829-23.63-59.111z" />
<glyph unicode="&#xe967;" d="M213.193 187.708c-15.534-15.714-54.755-0.738-67.59-11.151-11.246-9.244 10.673-23.709 8.277-48.173-1.291-11.783-7.406-15.911-7.623-31.975-0.122-12.319 8.043-11.358 13.78-15.486 22.95-13.504 25.377-7.878 81.365-18.896 38.366-7.459 50.144-22.169 89.918-18.604 13.329 1.169 13.414 1.381 25.521 10.545 12.665 9.918 5.961 8.144 5.185 22.408 0.637 28.299 0.871 36.603-15.364 62.256-21.313 33.644-21.627 34.047-35.583 56.221-13.95 21.855-30.924 65.762-46.893 66.076-12.559 0.313-19.847-6.513-27.752-14.572-7.9-8.064-11.47-46.462-23.242-58.649z" />
<glyph unicode="&#xe968;" d="M213.942 187.479c-15.996-16.134-55.578-1.158-68.020-11.342-11.167-9.281 11.13-24.065 8.744-47.695-1.328-11.703-7.177-16.017-7.777-31.954-0.42-12.25 8.266-11.22 14.083-15.167 23.895-13.27 26.876-8.24 80.765-18.806 38.133-7.384 49.836-22.025 89.344-18.482 13.249 1.153 13.079 1.397 25.207 10.349 12.415 9.493 5.812 7.841 4.797 22.62 0.122 28.108 0.839 36.714-14.753 61.358-21.181 33.426-21.728 33.681-35.598 55.706-13.86 21.722-30.488 65.784-46.356 66.086-12.479 0.313-19.714-6.471-27.571-14.482s-11.151-46.112-22.865-58.192z" />
<glyph unicode="&#xe969;" d="M214.691 187.245c-16.463-16.548-56.407-1.578-68.445-11.533-11.087-9.313 11.586-24.421 9.201-47.196-1.355-11.629-6.938-16.128-7.926-31.938-0.712-12.181 8.495-11.092 14.391-14.859 24.836-13.037 28.374-8.595 80.164-18.716 37.893-7.305 49.528-21.887 88.776-18.365 13.164 1.137 12.739 1.424 24.889 10.152 12.165 9.063 5.668 7.533 4.415 22.833-0.393 27.922 0.807 36.831-14.152 60.461-21.053 33.213-21.829 33.309-35.609 55.201-13.775 21.579-30.058 65.794-45.82 66.102-12.399 0.303-19.592-6.428-27.401-14.391-7.799-7.958-10.832-45.766-22.482-57.751z" />
<glyph unicode="&#xe96a;" d="M215.44 187.017c-16.925-16.973-57.231-2.003-68.875-11.725-11.007-9.35 12.043-24.788 9.669-46.707-1.387-11.56-6.71-16.24-8.080-31.922-0.999-12.107 8.723-10.954 14.699-14.54 25.781-12.808 29.872-8.962 79.564-18.631 37.66-7.225 49.22-21.749 88.207-18.253 13.079 1.126 12.399 1.445 24.575 9.955 11.916 8.643 5.525 7.225 4.021 23.051-0.903 27.736 0.781 36.943-13.541 59.563-20.931 33.001-21.935 32.937-35.625 54.686-13.685 21.446-29.617 65.816-45.278 66.113-12.319 0.313-19.47-6.38-27.226-14.29-7.761-7.91-10.513-45.421-22.11-57.3z" />
<glyph unicode="&#xe96b;" d="M216.189 186.783c-17.393-17.382-58.059-2.417-69.306-11.916-10.928-9.382 12.505-25.138 10.136-46.213-1.413-11.485-6.476-16.341-8.234-31.906-1.296-12.038 8.946-10.821 15.008-14.227 26.721-12.574 31.37-9.318 78.964-18.54 37.421-7.145 48.906-21.6 87.639-18.131 12.994 1.11 12.059 1.466 24.256 9.759 11.666 8.218 5.376 6.922 3.634 23.263-1.418 27.55 0.754 37.059-12.936 58.665-20.803 32.788-22.036 32.57-35.636 54.171-13.6 21.308-29.186 65.837-44.746 66.134-12.24 0.303-19.343-6.343-27.046-14.205-7.714-7.857-10.2-45.071-21.733-56.853z" />
<glyph unicode="&#xe96c;" d="M216.932 186.555c-17.855-17.807-58.883-2.837-69.731-12.107-10.848-9.414 12.957-25.505 10.598-45.724-1.445-11.406-6.242-16.453-8.383-31.89-1.588-11.964 9.175-10.689 15.31-13.908 27.667-12.346 32.873-9.674 78.363-18.455 37.187-7.066 48.593-21.462 87.065-18.014 12.909 1.094 11.719 1.487 23.938 9.557 11.416 7.793 5.227 6.619 3.246 23.476-1.934 27.359 0.728 37.176-12.325 57.773-20.676 32.576-22.137 32.199-35.652 53.666-13.509 21.165-28.745 65.842-44.21 66.145-12.16 0.303-19.215-6.311-26.87-14.11-7.65-7.809-9.87-44.731-21.351-56.407z" />
<glyph unicode="&#xe96d;" d="M217.687 186.321c-18.323-18.222-59.712-3.257-70.161-12.298-10.774-9.445 13.414-25.861 11.066-45.235-1.472-11.337-6.014-16.559-8.537-31.869-1.881-11.894 9.403-10.556 15.619-13.6 28.607-12.107 34.371-10.035 77.763-18.36 36.953-6.991 48.285-21.329 86.497-17.898 12.824 1.078 11.379 1.509 23.624 9.36 11.167 7.368 5.084 6.306 2.858 23.688-2.449 27.173 0.696 37.293-11.725 56.875-20.548 32.363-22.243 31.827-35.662 53.156-13.419 21.027-28.315 65.853-43.673 66.156-12.080 0.303-19.093-6.263-26.695-14.019s-9.562-44.375-20.973-55.956z" />
<glyph unicode="&#xe96e;" d="M218.431 186.093c-18.79-18.647-60.54-3.676-70.591-12.495-10.694-9.483 13.876-26.227 11.528-44.746-1.509-11.262-5.78-16.67-8.691-31.848-2.173-11.831 9.626-10.423 15.927-13.286 29.553-11.879 35.869-10.391 77.163-18.269 36.714-6.917 47.971-21.186 85.923-17.781 12.739 1.062 11.039 1.53 23.311 9.164 10.917 6.938 4.941 5.998 2.47 23.895-2.959 26.987 0.664 37.41-11.114 55.982-20.421 32.151-22.349 31.46-35.678 52.641-13.334 20.894-27.88 65.874-43.137 66.177-12.001 0.297-18.965-6.226-26.52-13.934-7.554-7.698-9.233-44.019-20.591-55.499z" />
<glyph unicode="&#xe96f;" d="M219.18 185.859c-19.258-19.056-61.369-4.096-71.022-12.686-10.614-9.515 14.333-26.578 11.995-44.252-1.541-11.183-5.546-16.771-8.845-31.832-2.465-11.756 9.855-10.29 16.229-12.968 30.493-11.65 37.368-10.752 76.563-18.184 36.48-6.837 47.663-21.048 85.355-17.664 12.654 1.047 10.699 1.557 22.992 8.967 10.662 6.518 4.792 5.695 2.082 24.113-3.474 26.801 0.637 37.522-10.508 55.084-20.293 31.933-22.45 31.088-35.694 52.131-13.244 20.75-27.444 65.89-42.6 66.187-11.921 0.292-18.838-6.184-26.344-13.834-7.496-7.655-8.904-43.679-20.203-55.063z" />
<glyph unicode="&#xe970;" d="M219.929 185.625c-19.714-19.475-62.192-4.516-71.447-12.877-10.529-9.546 14.79-26.934 12.463-43.758-1.567-11.108-5.318-16.883-8.994-31.816-2.757-11.682 10.078-10.152 16.538-12.659 31.434-11.406 38.866-11.108 75.962-18.089 36.247-6.757 47.36-20.91 84.786-17.547 12.569 1.036 10.359 1.583 22.679 8.765 10.412 6.088 4.648 5.392 1.695 24.326-3.99 26.615 0.606 37.638-9.902 54.187-20.166 31.72-22.551 30.716-35.705 51.621-13.159 20.612-27.008 65.906-42.064 66.203-11.841 0.292-18.71-6.146-26.164-13.749-7.469-7.591-8.606-43.323-19.847-54.606z" />
<glyph unicode="&#xe971;" d="M220.678 185.397c-20.182-19.89-63.021-4.941-71.877-13.069-10.455-9.584 15.247-27.301 12.925-43.275-1.599-11.034-5.084-16.984-9.148-31.795-3.049-11.618 10.306-10.019 16.84-12.341 32.379-11.183 40.364-11.475 75.362-18.009 36.013-6.678 47.047-20.766 84.218-17.425 12.489 1.015 10.019 1.599 22.36 8.569 10.168 5.658 4.505 5.079 1.312 24.538-4.5 26.424 0.579 37.75-9.297 53.289-20.038 31.508-22.652 30.35-35.721 51.111-13.069 20.474-26.573 65.916-41.527 66.214-11.762 0.292-18.588-6.099-25.994-13.648s-8.271-42.977-19.454-54.16z" />
<glyph unicode="&#xe972;" d="M577.736 661.772v-0.632c-0.414-2.019-4.813-3.427-10.439-7.315-9.886-6.996-18.105-12.883-32.985-21.319-14.11-7.384-35.158-19.151-61.677-20.607h-10.896c-16.686 2.401-17.419 2.725-27.359 7.836-5.18 3.687-15.454 9.233-21.744 14.195v0.707c2.412-1.753 4.223-3.214 9.552-6.71 11.746-9.493 32.342-11.735 42.717-12.112 23.821-3.692 66.256 18.551 82.295 28.379 8.537 6.38 23.762 19.066 29.479 19.337 0.622-0.669 0.951-1.238 1.057-1.758z" />
<glyph unicode="&#xe973;" d="M577.736 661.772v-0.632c-0.414-2.019-4.813-3.427-10.439-7.315-9.886-6.996-18.105-12.883-32.985-21.319-14.11-7.384-35.158-19.151-61.677-20.607h-10.896c-16.686 2.401-17.419 2.725-27.359 7.836-4.33 3.081-12.229 7.464-18.37 11.719v0.707c1.472-1.068 3.32-2.353 6.184-4.234 11.746-9.493 32.342-11.735 42.717-12.112 23.821-3.692 66.256 18.551 82.295 28.379 8.537 6.38 23.762 19.066 29.479 19.337 0.616-0.669 0.946-1.238 1.052-1.758z" />
<glyph unicode="&#xe974;" d="M577.736 661.772v-0.632c-0.414-2.019-4.813-3.427-10.439-7.315-9.886-6.996-18.105-12.883-32.985-21.319-14.11-7.384-35.158-19.151-61.677-20.607h-10.896c-16.686 2.401-17.419 2.725-27.359 7.836-3.57 2.545-9.562 5.966-15.002 9.477v0.59c0.818-0.558 1.742-1.174 2.81-1.875 11.746-9.493 32.342-11.735 42.717-12.112 23.821-3.692 66.256 18.551 82.295 28.379 8.537 6.38 23.762 19.066 29.479 19.337 0.622-0.669 0.951-1.238 1.057-1.758z" />
<glyph unicode="&#xe975;" d="M577.736 661.772v-0.632c-0.414-2.019-4.813-3.427-10.439-7.315-9.886-6.996-18.105-12.883-32.985-21.319-14.11-7.384-35.158-19.151-61.677-20.607h-10.896c-16.686 2.401-17.419 2.725-27.359 7.836-0.342 0.251-0.839 0.594-1.342 0.927l-0.183 0.114v1.1c11.135-4.489 24.384-5.785 32.050-6.061 23.821-3.692 66.256 18.551 82.295 28.379 8.537 6.38 23.762 19.066 29.479 19.337 0.622-0.669 0.951-1.238 1.057-1.758z" />
<glyph unicode="&#xe976;" d="M577.614 661.819v-0.685c-0.457-2.019-4.919-3.432-10.625-7.459-9.839-6.933-17.775-12.644-32.475-20.979-14.131-7.4-35.503-19.353-62.357-20.74h-10.189c-16.734 2.364-18.147 2.842-27.741 7.815-5.323 3.735-15.459 9.217-21.712 14.179v0.818c2.507-1.764 4.558-3.395 9.897-6.901 11.677-9.408 31.912-11.735 42.393-12.144 24.156-3.655 67.048 18.896 82.497 28.501 8.718 6.486 23.677 18.933 29.325 19.252 0.568-0.627 0.882-1.169 0.988-1.657z" />
<glyph unicode="&#xe977;" d="M577.614 661.819v-0.685c-0.457-2.019-4.919-3.432-10.625-7.459-9.839-6.933-17.775-12.644-32.475-20.979-14.131-7.4-35.503-19.353-62.357-20.74h-10.189c-16.734 2.364-18.147 2.842-27.741 7.815-4.446 3.118-12.25 7.453-18.349 11.693v0.882c1.588-1.142 3.543-2.518 6.529-4.478 11.677-9.408 31.912-11.735 42.393-12.144 24.156-3.655 67.048 18.896 82.497 28.501 8.718 6.486 23.677 18.933 29.325 19.252 0.574-0.627 0.887-1.169 0.993-1.657z" />
<glyph unicode="&#xe978;" d="M577.614 661.819v-0.685c-0.457-2.019-4.919-3.432-10.625-7.459-9.839-6.933-17.775-12.644-32.475-20.979-14.131-7.4-35.503-19.353-62.357-20.74h-10.189c-16.734 2.364-18.147 2.842-27.741 7.815-3.66 2.566-9.589 5.961-14.976 9.44v0.77c0.914-0.627 1.95-1.323 3.161-2.114 11.677-9.408 31.912-11.735 42.393-12.144 24.156-3.655 67.048 18.896 82.497 28.501 8.718 6.486 23.677 18.933 29.325 19.252 0.568-0.627 0.882-1.169 0.988-1.657z" />
<glyph unicode="&#xe979;" d="M577.614 661.819v-0.685c-0.457-2.019-4.919-3.432-10.625-7.459-9.839-6.933-17.775-12.644-32.475-20.979-14.131-7.4-35.503-19.353-62.357-20.74h-10.189c-16.734 2.364-18.147 2.842-27.741 7.815-2.906 2.040-7.246 4.595-11.608 7.305v0.622c11.709-9.265 31.763-11.57 42.181-11.979 24.156-3.655 67.048 18.896 82.497 28.501 8.718 6.486 23.677 18.933 29.325 19.252 0.458-0.442 0.803-1 0.987-1.626l0.007-0.026z" />
<glyph unicode="&#xe97a;" d="M577.614 661.819v-0.685c-0.457-2.019-4.919-3.432-10.625-7.459-9.839-6.933-17.775-12.644-32.475-20.979-14.131-7.4-35.503-19.353-62.357-20.74h-10.189c-16.734 2.364-18.147 2.842-27.741 7.815-2.036 1.413-4.723 3.142-7.458 4.797l-0.776 0.436v0.351c11.889-7.321 29.335-9.26 38.813-9.631 24.156-3.655 67.048 18.896 82.497 28.501 8.718 6.486 23.677 18.933 29.325 19.252 0.568-0.627 0.882-1.169 0.988-1.657z" />
<glyph unicode="&#xe97b;" d="M577.614 661.819v-0.685c-0.457-2.019-4.919-3.432-10.625-7.459-9.839-6.933-17.775-12.644-32.475-20.979-14.131-7.4-35.503-19.353-62.357-20.74h-10.189c-16.734 2.364-18.147 2.842-27.741 7.815-1.355 0.951-3.028 2.013-4.866 3.156v0.558c11.624-5.796 26.828-7.427 35.439-7.767 24.156-3.655 67.048 18.896 82.497 28.501 8.718 6.486 23.677 18.933 29.325 19.252 0.458-0.442 0.803-1 0.987-1.626l0.007-0.026z" />
<glyph unicode="&#xe97c;" d="M577.614 661.819v-0.685c-0.457-2.019-4.919-3.432-10.625-7.459-9.839-6.933-17.775-12.644-32.475-20.979-14.131-7.4-35.503-19.353-62.357-20.74h-10.189c-16.734 2.364-18.147 2.842-27.741 7.815-0.28 0.205-0.767 0.54-1.258 0.867l-0.235 0.148v1.174c11.060-4.558 24.267-5.929 32.071-6.237 24.156-3.655 67.048 18.896 82.497 28.501 8.718 6.486 23.677 18.933 29.325 19.252 0.568-0.627 0.882-1.169 0.988-1.657z" />
<glyph unicode="&#xe97d;" d="M577.614 661.819v-0.685c-0.457-2.019-4.919-3.432-10.625-7.459-9.839-6.933-17.775-12.644-32.475-20.979-14.131-7.4-35.503-19.353-62.357-20.74h-10.189c-5.374 0.707-8.447 1.179-11.509 1.683l2.493-0.339v3.485c4.516-0.637 8.638-0.94 11.852-1.068 24.156-3.655 67.048 18.896 82.497 28.501 8.718 6.486 23.677 18.933 29.325 19.252 0.455-0.444 0.797-1.001 0.981-1.626l0.007-0.027z" />
<glyph unicode="&#xe97e;" d="M577.486 661.91v-0.813c-0.542-1.992-5.041-3.432-10.811-7.57-9.796-6.864-17.441-12.415-31.959-20.644-14.174-7.411-35.907-19.576-63.133-20.862h-9.387c-16.787 2.327-18.864 2.959-28.129 7.799-6.625 4.585-19.906 11.56-25.053 17.244 4.643-2.778 6.189-4.361 13.61-9.249 11.624-9.318 31.481-11.735 42.074-12.176 24.49-3.618 67.845 19.231 82.714 28.618 8.882 6.598 23.582 18.801 29.155 19.173 0.409-0.416 0.725-0.925 0.911-1.492l0.008-0.027z" />
<glyph unicode="&#xe97f;" d="M577.486 661.91v-0.813c-0.542-1.992-5.041-3.432-10.811-7.57-9.796-6.864-17.441-12.415-31.959-20.644-14.174-7.411-35.907-19.576-63.133-20.862h-9.387c-16.787 2.327-18.864 2.959-28.129 7.799-5.461 3.782-15.459 9.19-21.68 14.163v0.924c2.603-1.769 4.898-3.575 10.237-7.092 11.624-9.318 31.481-11.735 42.074-12.176 24.49-3.618 67.845 19.231 82.714 28.618 8.882 6.598 23.582 18.801 29.155 19.173 0.409-0.416 0.725-0.925 0.911-1.492l0.008-0.027z" />
<glyph unicode="&#xe980;" d="M577.486 661.91v-0.813c-0.542-1.992-5.041-3.432-10.811-7.57-9.796-6.864-17.441-12.415-31.959-20.644-14.174-7.411-35.907-19.576-63.133-20.862h-9.387c-16.787 2.327-18.864 2.959-28.129 7.799-4.558 3.156-12.266 7.437-18.312 11.661v1.047c1.7-1.217 3.772-2.677 6.869-4.712 11.624-9.318 31.481-11.735 42.074-12.176 24.49-3.618 67.845 19.231 82.714 28.618 8.882 6.598 23.582 18.801 29.155 19.173 0.409-0.416 0.725-0.925 0.911-1.492l0.008-0.027z" />
<glyph unicode="&#xe981;" d="M577.486 661.91v-0.813c-0.542-1.992-5.041-3.432-10.811-7.57-9.796-6.864-17.441-12.415-31.959-20.644-14.174-7.411-35.907-19.576-63.133-20.862h-9.387c-16.787 2.327-18.864 2.959-28.129 7.799-3.745 2.587-9.615 5.945-14.939 9.403v0.946c1.009-0.691 2.157-1.466 3.496-2.348 11.624-9.318 31.481-11.735 42.074-12.176 24.49-3.618 67.845 19.231 82.714 28.618 8.882 6.598 23.582 18.801 29.155 19.173 0.408-0.418 0.724-0.928 0.911-1.497l0.008-0.027z" />
<glyph unicode="&#xe982;" d="M577.486 661.91v-0.813c-0.542-1.992-5.041-3.432-10.811-7.57-9.796-6.864-17.441-12.415-31.959-20.644-14.174-7.411-35.907-19.576-63.133-20.862h-9.387c-16.787 2.327-18.864 2.959-28.129 7.799-2.964 2.051-7.262 4.579-11.57 7.262v0.818l0.127-0.085c11.624-9.318 31.481-11.735 42.074-12.176 24.49-3.618 67.845 19.231 82.714 28.618 8.882 6.598 23.582 18.801 29.155 19.173 0.409-0.416 0.725-0.925 0.911-1.492l0.008-0.027z" />
<glyph unicode="&#xe983;" d="M577.486 661.91v-0.813c-0.542-1.992-5.041-3.432-10.811-7.57-9.796-6.864-17.441-12.415-31.959-20.644-14.174-7.411-35.907-19.576-63.133-20.862h-9.387c-16.787 2.327-18.864 2.959-28.129 7.799-2.189 1.514-5.095 3.283-8.197 5.185v0.515c11.794-7.432 29.17-9.477 38.834-9.876 24.49-3.618 67.845 19.231 82.714 28.618 8.882 6.598 23.582 18.801 29.155 19.173 0.405-0.419 0.718-0.929 0.906-1.497l0.008-0.028z" />
<glyph unicode="&#xe984;" d="M577.486 661.91v-0.813c-0.542-1.992-5.041-3.432-10.811-7.57-9.796-6.864-17.441-12.415-31.959-20.644-14.174-7.411-35.907-19.576-63.133-20.862h-9.387c-16.787 2.327-18.864 2.959-28.129 7.799-1.128 0.789-2.702 1.816-4.302 2.808l-0.527 0.305v0.675c11.544-5.881 26.684-7.602 35.46-7.969 24.49-3.618 67.845 19.231 82.714 28.618 8.882 6.598 23.582 18.801 29.155 19.173 0.409-0.416 0.725-0.925 0.911-1.492l0.008-0.027z" />
<glyph unicode="&#xe985;" d="M577.486 661.91v-0.813c-0.542-1.992-5.041-3.432-10.811-7.57-9.796-6.864-17.441-12.415-31.959-20.644-14.174-7.411-35.907-19.576-63.133-20.862h-9.387c-16.787 2.327-18.864 2.959-28.129 7.799-0.457 0.319-0.946 0.643-1.461 0.977v1.248c10.986-4.632 24.15-6.077 32.092-6.407 24.49-3.618 67.845 19.231 82.714 28.618 8.882 6.598 23.582 18.801 29.155 19.173 0.409-0.416 0.725-0.925 0.911-1.492l0.008-0.027z" />
<glyph unicode="&#xe986;" d="M577.486 661.91v-0.813c-0.542-1.992-5.041-3.432-10.811-7.57-9.796-6.864-17.441-12.415-31.959-20.644-14.174-7.411-35.907-19.576-63.133-20.862h-9.387c-5.222 0.675-8.415 1.16-11.595 1.685l2.229-0.303v3.342c4.494-0.653 8.622-0.972 11.868-1.105 24.49-3.618 67.845 19.231 82.714 28.618 8.882 6.598 23.582 18.801 29.155 19.173 0.409-0.416 0.725-0.925 0.911-1.492l0.008-0.027z" />
<glyph unicode="&#xe987;" d="M577.486 661.91v-0.813c-0.542-1.992-5.041-3.432-10.811-7.57-9.796-6.864-17.441-12.415-31.959-20.644-14.174-7.411-35.907-19.576-63.133-20.862h-9.387c-5.246 0.662-7.29 0.963-9.332 1.274l3.34-0.418v3.432c3.177-0.367 6.077-0.568 8.5-0.669 24.49-3.618 67.845 19.231 82.714 28.618 8.882 6.598 23.582 18.801 29.155 19.173 0.406-0.417 0.719-0.925 0.906-1.492l0.008-0.027z" />
<glyph unicode="&#xe988;" d="M577.364 661.958v-0.882c-0.59-1.987-5.158-3.432-10.997-7.703-9.743-6.8-17.111-12.181-31.45-20.315-14.184-7.416-36.263-19.778-63.807-20.984h-8.68c-16.83 2.29-19.587 3.076-28.512 7.777-6.795 4.643-19.842 11.507-25.021 17.249 4.51-2.545 6.529-4.452 13.95-9.35 11.565-9.233 31.062-11.735 41.756-12.213 24.83-3.575 68.642 19.576 82.927 28.745 9.047 6.71 23.481 18.663 28.979 19.082 0.377-0.387 0.67-0.858 0.848-1.382l0.008-0.026z" />
<glyph unicode="&#xe989;" d="M577.364 661.958v-0.882c-0.59-1.987-5.158-3.432-10.997-7.703-9.743-6.8-17.111-12.181-31.45-20.315-14.184-7.416-36.263-19.778-63.807-20.984h-8.68c-16.83 2.29-19.587 3.076-28.512 7.777-5.605 3.83-15.464 9.175-21.653 14.147v1.041c2.693-1.78 5.238-3.756 10.582-7.283 11.565-9.233 31.062-11.735 41.756-12.213 24.83-3.575 68.642 19.576 82.927 28.745 9.047 6.71 23.481 18.663 28.979 19.082 0.376-0.389 0.669-0.862 0.848-1.387l0.008-0.026z" />
<glyph unicode="&#xe98a;" d="M577.364 661.958v-0.882c-0.59-1.987-5.158-3.432-10.997-7.703-9.743-6.8-17.111-12.181-31.45-20.315-14.184-7.416-36.263-19.778-63.807-20.984h-8.68c-16.83 2.29-19.587 3.076-28.512 7.777-4.67 3.193-12.288 7.427-18.28 11.629v1.222c1.822-1.291 4.016-2.842 7.209-4.951 11.565-9.233 31.062-11.735 41.756-12.213 24.83-3.575 68.642 19.576 82.927 28.745 9.047 6.71 23.481 18.663 28.979 19.082 0.377-0.387 0.67-0.858 0.848-1.382l0.008-0.026z" />
<glyph unicode="&#xe98b;" d="M577.364 661.958v-0.882c-0.59-1.987-5.158-3.432-10.997-7.703-9.743-6.8-17.111-12.181-31.45-20.315-14.184-7.416-36.263-19.778-63.807-20.984h-8.68c-16.83 2.29-19.587 3.076-28.512 7.777-3.825 2.614-9.637 5.934-14.912 9.36v1.126c1.11-0.765 2.369-1.62 3.841-2.587 11.565-9.233 31.062-11.735 41.756-12.213 24.83-3.575 68.642 19.576 82.927 28.745 9.047 6.71 23.481 18.663 28.979 19.082 0.377-0.387 0.67-0.858 0.848-1.382l0.008-0.026z" />
<glyph unicode="&#xe98c;" d="M577.364 661.958v-0.882c-0.59-1.987-5.158-3.432-10.997-7.703-9.743-6.8-17.111-12.181-31.45-20.315-14.184-7.416-36.263-19.778-63.807-20.984h-8.68c-16.83 2.29-19.587 3.076-28.512 7.777-3.023 2.067-7.283 4.569-11.539 7.22v0.993l0.467-0.313c11.565-9.233 31.062-11.735 41.756-12.213 24.83-3.575 68.642 19.576 82.927 28.745 9.047 6.71 23.481 18.663 28.979 19.082 0.377-0.387 0.67-0.858 0.848-1.382l0.008-0.026z" />
<glyph unicode="&#xe98d;" d="M577.364 661.958v-0.882c-0.59-1.987-5.158-3.432-10.997-7.703-9.743-6.8-17.111-12.181-31.45-20.315-14.184-7.416-36.263-19.778-63.807-20.984h-8.68c-16.83 2.29-19.587 3.076-28.512 7.777-2.215 1.519-5.105 3.267-8.17 5.142v0.68c11.709-7.544 29.006-9.695 38.855-10.136 24.83-3.575 68.642 19.576 82.927 28.745 9.047 6.71 23.481 18.663 28.979 19.082 0.377-0.387 0.67-0.858 0.848-1.382l0.008-0.026z" />
<glyph unicode="&#xe98e;" d="M577.364 661.958v-0.882c-0.59-1.987-5.158-3.432-10.997-7.703-9.743-6.8-17.111-12.181-31.45-20.315-14.184-7.416-36.263-19.778-63.807-20.984h-8.68c-16.83 2.29-19.587 3.076-28.512 7.777-1.381 0.946-3.017 1.976-4.797 3.076v0.797c11.464-5.976 26.546-7.788 35.482-8.186 24.83-3.575 68.642 19.576 82.927 28.745 9.047 6.71 23.481 18.663 28.979 19.082 0.377-0.387 0.67-0.858 0.848-1.382l0.008-0.026z" />
<glyph unicode="&#xe98f;" d="M577.364 661.958v-0.882c-0.59-1.987-5.158-3.432-10.997-7.703-9.743-6.8-17.111-12.181-31.45-20.315-14.184-7.416-36.263-19.778-63.807-20.984h-8.68c-16.83 2.29-19.587 3.076-28.512 7.777-0.239 0.173-0.704 0.487-1.174 0.794l-0.255 0.157v1.323c10.917-4.707 24.028-6.221 32.114-6.582 24.83-3.575 68.642 19.576 82.927 28.745 9.047 6.71 23.481 18.663 28.979 19.082 0.376-0.389 0.669-0.862 0.848-1.387l0.008-0.026z" />
<glyph unicode="&#xe990;" d="M577.364 661.958v-0.882c-0.59-1.987-5.158-3.432-10.997-7.703-9.743-6.8-17.111-12.181-31.45-20.315-14.184-7.416-36.263-19.778-63.807-20.984h-8.68c-5.082 0.647-8.395 1.147-11.693 1.695l1.976-0.271v3.198c4.473-0.664 8.601-1.004 11.889-1.153 24.83-3.575 68.642 19.576 82.927 28.745 9.047 6.71 23.481 18.663 28.979 19.082 0.376-0.389 0.669-0.862 0.848-1.387l0.008-0.026z" />
<glyph unicode="&#xe991;" d="M577.364 661.958v-0.882c-0.59-1.987-5.158-3.432-10.997-7.703-9.743-6.8-17.111-12.181-31.45-20.315-14.184-7.416-36.263-19.778-63.807-20.984h-8.68c-4.762 0.593-6.927 0.907-9.088 1.235l2.745-0.343v3.272c3.172-0.377 6.077-0.59 8.521-0.701 24.83-3.575 68.642 19.576 82.927 28.745 9.047 6.71 23.481 18.663 28.979 19.082 0.374-0.388 0.665-0.859 0.842-1.382l0.008-0.026z" />
<glyph unicode="&#xe992;" d="M577.364 661.958v-0.882c-0.59-1.987-5.158-3.432-10.997-7.703-9.743-6.8-17.111-12.181-31.45-20.315-14.184-7.416-36.263-19.778-63.807-20.984h-8.68c-3.036 0.367-4.052 0.511-5.067 0.659l2.092-0.25v3.405c1.87-0.17 3.602-0.276 5.148-0.345 24.83-3.575 68.642 19.576 82.927 28.745 9.047 6.71 23.481 18.663 28.979 19.082 0.376-0.389 0.669-0.862 0.848-1.387l0.008-0.026z" />
<glyph unicode="&#xe993;" d="M577.236 662.048v-1.004c-0.664-1.966-5.291-3.432-11.183-7.815-9.7-6.726-16.777-11.953-30.94-19.969-14.205-7.432-36.666-20.017-64.578-21.122h-7.878c-16.883 2.258-20.309 3.198-28.894 7.761-6.97 4.701-19.783 11.459-24.99 17.255 4.383-2.311 6.874-4.542 14.296-9.451 11.501-9.148 30.626-11.735 41.432-12.245 25.17-3.538 69.433 19.916 83.139 28.868 9.212 6.816 23.396 18.53 28.815 18.997 0.333-0.356 0.598-0.781 0.772-1.249l0.008-0.026z" />
<glyph unicode="&#xe994;" d="M577.236 662.048v-1.004c-0.664-1.966-5.291-3.432-11.183-7.815-9.7-6.726-16.777-11.953-30.94-19.969-14.205-7.432-36.666-20.017-64.578-21.122h-7.878c-16.883 2.258-20.309 3.198-28.894 7.761-5.748 3.873-15.464 9.148-21.616 14.131v1.153c2.784-1.79 5.567-3.942 10.928-7.48 11.501-9.148 30.626-11.735 41.432-12.245 25.17-3.538 69.433 19.916 83.139 28.868 9.212 6.816 23.396 18.53 28.815 18.997 0.329-0.357 0.592-0.781 0.767-1.249l0.009-0.026z" />
<glyph unicode="&#xe995;" d="M577.236 662.048v-1.004c-0.664-1.966-5.291-3.432-11.183-7.815-9.7-6.726-16.777-11.953-30.94-19.969-14.205-7.432-36.666-20.017-64.578-21.122h-7.878c-16.883 2.258-20.309 3.198-28.894 7.761-4.776 3.225-12.309 7.416-18.248 11.602v1.392c1.95-1.365 4.266-3.012 7.554-5.185 11.501-9.148 30.626-11.735 41.432-12.245 25.17-3.538 69.433 19.916 83.139 28.868 9.212 6.816 23.396 18.53 28.815 18.997 0.332-0.359 0.597-0.784 0.772-1.254l0.009-0.026z" />
<glyph unicode="&#xe996;" d="M577.236 662.048v-1.004c-0.664-1.966-5.291-3.432-11.183-7.815-9.7-6.726-16.777-11.953-30.94-19.969-14.205-7.432-36.666-20.017-64.578-21.122h-7.878c-16.883 2.258-20.309 3.198-28.894 7.761-3.91 2.64-9.663 5.923-14.875 9.323v1.312c1.217-0.839 2.582-1.769 4.186-2.832 11.501-9.148 30.626-11.735 41.432-12.245 25.17-3.538 69.433 19.916 83.139 28.868 9.212 6.816 23.396 18.53 28.815 18.997 0.329-0.357 0.592-0.781 0.767-1.249l0.009-0.026z" />
<glyph unicode="&#xe997;" d="M577.236 662.048v-1.004c-0.664-1.966-5.291-3.432-11.183-7.815-9.7-6.726-16.777-11.953-30.94-19.969-14.205-7.432-36.666-20.017-64.578-21.122h-7.878c-16.883 2.258-20.309 3.198-28.894 7.761-3.081 2.082-7.305 4.553-11.507 7.182v1.169l0.813-0.542c11.501-9.148 30.626-11.735 41.432-12.245 25.17-3.538 69.433 19.916 83.139 28.868 9.212 6.816 23.396 18.53 28.815 18.997 0.332-0.359 0.597-0.784 0.772-1.254l0.009-0.026z" />
<glyph unicode="&#xe998;" d="M577.236 662.048v-1.004c-0.664-1.966-5.291-3.432-11.183-7.815-9.7-6.726-16.777-11.953-30.94-19.969-14.205-7.432-36.666-20.017-64.578-21.122h-7.878c-16.883 2.258-20.309 3.198-28.894 7.761-2.247 1.519-5.111 3.251-8.133 5.1v0.861c11.618-7.655 28.836-9.924 38.876-10.402 25.17-3.538 69.433 19.916 83.139 28.868 9.212 6.816 23.396 18.53 28.815 18.997 0.329-0.357 0.592-0.781 0.767-1.249l0.009-0.026z" />
<glyph unicode="&#xe999;" d="M577.236 662.048v-1.004c-0.664-1.966-5.291-3.432-11.183-7.815-9.7-6.726-16.777-11.953-30.94-19.969-14.205-7.432-36.666-20.017-64.578-21.122h-7.878c-16.883 2.258-20.309 3.198-28.894 7.761-1.056 0.731-2.608 1.732-4.182 2.702l-0.578 0.331v0.924c11.385-6.061 26.397-7.969 35.508-8.399 25.17-3.538 69.433 19.916 83.139 28.868 9.212 6.816 23.396 18.53 28.815 18.997 0.326-0.358 0.587-0.782 0.761-1.248l0.009-0.027z" />
<glyph unicode="&#xe99a;" d="M577.236 662.048v-1.004c-0.664-1.966-5.291-3.432-11.183-7.815-9.7-6.726-16.777-11.953-30.94-19.969-14.205-7.432-36.666-20.017-64.578-21.122h-7.878c-16.883 2.258-20.309 3.198-28.894 7.761-0.133 0.103-0.586 0.405-1.043 0.704l-0.349 0.215v1.408c10.843-4.781 23.901-6.38 32.135-6.768 25.17-3.538 69.433 19.916 83.139 28.868 9.212 6.816 23.396 18.53 28.815 18.997 0.329-0.357 0.592-0.781 0.767-1.249l0.009-0.026z" />
<glyph unicode="&#xe99b;" d="M577.236 662.048v-1.004c-0.664-1.966-5.291-3.432-11.183-7.815-9.7-6.726-16.777-11.953-30.94-19.969-14.205-7.432-36.666-20.017-64.578-21.122h-7.878c-5.083 0.636-8.515 1.15-11.929 1.717l1.867-0.256v3.055c3.379-0.551 7.48-0.978 11.64-1.185l0.271-0.011c25.17-3.538 69.433 19.916 83.139 28.868 9.212 6.816 23.396 18.53 28.815 18.997 0.329-0.357 0.592-0.781 0.767-1.249l0.009-0.026z" />
<glyph unicode="&#xe99c;" d="M577.114 662.112v-1.089c-0.728-1.955-5.408-3.437-11.374-7.947-9.647-6.656-16.447-11.719-30.435-19.635-14.216-7.443-37.054-20.235-65.311-21.25h-7.113c-16.931 2.221-21.032 3.315-29.277 7.746-5.886 3.921-15.475 9.121-21.59 14.115v1.259c2.874-1.801 5.907-4.117 11.268-7.666 11.443-9.063 30.201-11.735 41.113-12.277 25.505-3.506 70.23 20.251 83.357 28.985 9.392 6.927 23.306 18.392 28.65 18.923 0.356-0.425 0.584-0.807 0.712-1.163z" />
<glyph unicode="&#xe99d;" d="M577.114 662.112v-1.089c-0.728-1.955-5.408-3.437-11.374-7.947-9.647-6.656-16.447-11.719-30.435-19.635-14.216-7.443-37.054-20.235-65.311-21.25h-7.113c-16.931 2.221-21.032 3.315-29.277 7.746-4.893 3.257-12.33 7.4-18.216 11.57v1.551c2.072-1.434 4.521-3.182 7.894-5.419 11.443-9.063 30.201-11.735 41.113-12.277 25.505-3.506 70.23 20.251 83.357 28.985 9.392 6.927 23.306 18.392 28.65 18.923 0.356-0.42 0.584-0.802 0.712-1.158z" />
<glyph unicode="&#xe99e;" d="M577.114 662.112v-1.089c-0.728-1.955-5.408-3.437-11.374-7.947-9.647-6.656-16.447-11.719-30.435-19.635-14.216-7.443-37.054-20.235-65.311-21.25h-7.113c-16.931 2.221-21.032 3.315-29.277 7.746-3.995 2.656-9.69 5.907-14.848 9.286v1.493c1.317-0.914 2.8-1.928 4.531-3.071 11.443-9.063 30.201-11.735 41.113-12.277 25.505-3.506 70.23 20.251 83.357 28.985 9.392 6.927 23.306 18.392 28.65 18.923 0.29-0.331 0.528-0.716 0.697-1.137l0.010-0.027z" />
<glyph unicode="&#xe99f;" d="M577.114 662.112v-1.089c-0.728-1.955-5.408-3.437-11.374-7.947-9.647-6.656-16.447-11.719-30.435-19.635-14.216-7.443-37.054-20.235-65.311-21.25h-7.113c-16.931 2.221-21.032 3.315-29.277 7.746-3.134 2.088-7.321 4.542-11.48 7.129v1.344l1.158-0.77c11.443-9.063 30.201-11.735 41.113-12.277 25.505-3.506 70.23 20.251 83.357 28.985 9.392 6.927 23.306 18.392 28.65 18.923 0.356-0.42 0.584-0.802 0.712-1.158z" />
<glyph unicode="&#xe9a0;" d="M577.114 662.112v-1.089c-0.728-1.955-5.408-3.437-11.374-7.947-9.647-6.656-16.447-11.719-30.435-19.635-14.216-7.443-37.054-20.235-65.311-21.25h-7.113c-16.931 2.221-21.032 3.315-29.277 7.746-0.956 0.659-2.5 1.649-4.063 2.612l-0.671 0.385v1.057c11.3-6.162 26.243-8.16 35.529-8.622 25.505-3.506 70.23 20.251 83.357 28.985 9.392 6.927 23.306 18.392 28.65 18.923 0.29-0.331 0.528-0.716 0.697-1.137l0.010-0.027z" />
<glyph unicode="&#xe9a1;" d="M577.114 662.112v-1.089c-0.728-1.955-5.408-3.437-11.374-7.947-9.647-6.656-16.447-11.719-30.435-19.635-14.216-7.443-37.054-20.235-65.311-21.25h-7.113c-5.227 0.647-8.78 1.174-12.313 1.757l1.901-0.259v2.917c4.425-0.701 8.553-1.068 11.932-1.238 25.505-3.506 70.23 20.251 83.357 28.985 9.392 6.927 23.306 18.392 28.65 18.923 0.29-0.331 0.528-0.716 0.697-1.137l0.010-0.027z" />
<glyph unicode="&#xe9a2;" d="M577.114 662.112v-1.089c-0.728-1.955-5.408-3.437-11.374-7.947-9.647-6.656-16.447-11.719-30.435-19.635-14.216-7.443-37.054-20.235-65.311-21.25h-7.113c-4.543 0.554-6.947 0.896-9.344 1.259l2.305-0.287v2.964c3.14-0.398 6.056-0.632 8.558-0.76 25.505-3.506 70.23 20.251 83.357 28.985 9.392 6.927 23.306 18.392 28.65 18.923 0.29-0.331 0.528-0.716 0.697-1.137l0.010-0.027z" />
<glyph unicode="&#xe9a3;" d="M576.976 662.181v-1.19c-0.786-1.939-5.52-3.437-11.549-8.070-9.61-6.587-16.113-11.485-29.925-19.3-14.237-7.448-37.453-20.458-66.055-21.367h-6.338c-16.978 2.183-21.754 3.432-29.659 7.73-7.315 4.818-19.661 11.347-24.926 17.265 4.122-1.843 7.56-4.733 14.981-9.658 11.385-8.973 29.771-11.735 40.794-12.309 25.845-3.469 71.032 20.586 83.564 29.107 9.557 7.039 23.221 18.259 28.48 18.833 0.262-0.295 0.476-0.64 0.624-1.018l0.008-0.023z" />
<glyph unicode="&#xe9a4;" d="M576.976 662.181v-1.19c-0.786-1.939-5.52-3.437-11.549-8.070-9.61-6.587-16.113-11.485-29.925-19.3-14.237-7.448-37.453-20.458-66.055-21.367h-6.338c-16.978 2.183-21.754 3.432-29.659 7.73-6.030 3.974-15.475 9.105-21.558 14.099v1.371c2.97-1.806 6.247-4.303 11.613-7.857 11.385-8.973 29.771-11.735 40.794-12.309 25.845-3.469 71.032 20.586 83.564 29.107 9.557 7.039 23.221 18.259 28.48 18.833 0.261-0.297 0.475-0.644 0.624-1.023l0.008-0.024z" />
<glyph unicode="&#xe9a5;" d="M576.976 662.181v-1.19c-0.786-1.939-5.52-3.437-11.549-8.070-9.61-6.587-16.113-11.485-29.925-19.3-14.237-7.448-37.453-20.458-66.055-21.367h-6.338c-16.978 2.183-21.754 3.432-29.659 7.73-5.004 3.294-12.351 7.39-18.184 11.539v1.716c2.199-1.509 4.786-3.357 8.24-5.647 11.385-8.973 29.771-11.735 40.794-12.309 25.845-3.469 71.032 20.586 83.564 29.107 9.557 7.039 23.221 18.259 28.48 18.833 0.262-0.295 0.476-0.64 0.624-1.018l0.008-0.023z" />
<glyph unicode="&#xe9a6;" d="M576.976 662.181v-1.19c-0.786-1.939-5.52-3.437-11.549-8.070-9.61-6.587-16.113-11.485-29.925-19.3-14.237-7.448-37.453-20.458-66.055-21.367h-6.338c-16.978 2.183-21.754 3.432-29.659 7.73-4.075 2.683-9.711 5.897-14.816 9.244v1.673c1.424-0.988 3.023-2.088 4.866-3.31 11.385-8.973 29.771-11.735 40.794-12.309 25.845-3.469 71.032 20.586 83.564 29.107 9.557 7.039 23.221 18.259 28.48 18.833 0.319-0.377 0.526-0.717 0.637-1.041z" />
<glyph unicode="&#xe9a7;" d="M576.976 662.181v-1.19c-0.786-1.939-5.52-3.437-11.549-8.070-9.61-6.587-16.113-11.485-29.925-19.3-14.237-7.448-37.453-20.458-66.055-21.367h-6.338c-16.978 2.183-21.754 3.432-29.659 7.73-3.193 2.104-7.342 4.531-11.443 7.092v1.519c0.478-0.329 0.977-0.659 1.493-0.999 11.385-8.973 29.771-11.735 40.794-12.309 25.845-3.469 71.032 20.586 83.564 29.107 9.557 7.039 23.221 18.259 28.48 18.833 0.319-0.382 0.526-0.722 0.637-1.047z" />
<glyph unicode="&#xe9a8;" d="M576.976 662.181v-1.19c-0.786-1.939-5.52-3.437-11.549-8.070-9.61-6.587-16.113-11.485-29.925-19.3-14.237-7.448-37.453-20.458-66.055-21.367h-6.338c-16.978 2.183-21.754 3.432-29.659 7.73-0.889 0.612-2.423 1.59-3.973 2.543l-0.728 0.416v1.185c11.22-6.247 26.095-8.351 35.545-8.84 25.845-3.469 71.032 20.586 83.564 29.107 9.557 7.039 23.221 18.259 28.48 18.833 0.319-0.382 0.526-0.722 0.637-1.047z" />
<glyph unicode="&#xe9a9;" d="M576.976 662.181v-1.19c-0.786-1.939-5.52-3.437-11.549-8.070-9.61-6.587-16.113-11.485-29.925-19.3-14.237-7.448-37.453-20.458-66.055-21.367h-6.338c-16.978 2.183-21.754 3.432-29.659 7.73 0.128-0.063-0.305 0.221-0.74 0.503l-0.588 0.358v1.572c10.694-4.935 23.64-6.688 32.172-7.129 25.845-3.469 71.032 20.586 83.564 29.107 9.557 7.039 23.221 18.259 28.48 18.833 0.319-0.382 0.526-0.722 0.637-1.047z" />
<glyph unicode="&#xe9aa;" d="M576.976 662.181v-1.19c-0.786-1.939-5.52-3.437-11.549-8.070-9.61-6.587-16.113-11.485-29.925-19.3-14.237-7.448-37.453-20.458-66.055-21.367h-6.338c-5.158 0.627-8.829 1.169-12.478 1.778l1.72-0.237v2.768c3.386-0.586 7.493-1.042 11.662-1.268l0.28-0.012c25.845-3.469 71.032 20.586 83.564 29.107 9.557 7.039 23.221 18.259 28.48 18.833 0.319-0.377 0.526-0.717 0.637-1.041z" />
<glyph unicode="&#xe9ab;" d="M576.854 662.244v-1.28c-0.85-1.923-5.636-3.437-11.735-8.192-9.557-6.518-15.794-11.252-29.415-18.96-14.237-7.453-37.84-20.681-66.766-21.494h-5.594c-17.032 2.146-22.472 3.549-30.047 7.714-7.491 4.871-19.598 11.294-24.899 17.265 3.995-1.61 7.9-4.824 15.326-9.759 11.321-8.888 29.34-11.73 40.47-12.341 26.18-3.427 71.824 20.931 83.777 29.234 9.732 7.151 23.13 18.121 28.315 18.748 0.23-0.267 0.421-0.576 0.56-0.912l0.008-0.022z" />
<glyph unicode="&#xe9ac;" d="M576.854 662.244v-1.28c-0.85-1.923-5.636-3.437-11.735-8.192-9.557-6.518-15.794-11.252-29.415-18.96-14.237-7.453-37.84-20.681-66.766-21.494h-5.594c-17.032 2.146-22.472 3.549-30.047 7.714-6.173 4.016-15.475 9.079-21.526 14.078v1.482c3.055-1.812 6.582-4.478 11.953-8.054 11.321-8.888 29.34-11.73 40.47-12.341 26.18-3.427 71.824 20.931 83.777 29.234 9.732 7.151 23.13 18.121 28.315 18.748 0.23-0.267 0.421-0.576 0.56-0.912l0.008-0.022z" />
<glyph unicode="&#xe9ad;" d="M576.854 662.244v-1.28c-0.85-1.923-5.636-3.437-11.735-8.192-9.557-6.518-15.794-11.252-29.415-18.96-14.237-7.453-37.84-20.681-66.766-21.494h-5.594c-17.032 2.146-22.472 3.549-30.047 7.714-5.111 3.326-12.373 7.374-18.153 11.507v1.881c2.327-1.578 5.057-3.538 8.585-5.881 11.321-8.888 29.34-11.73 40.47-12.341 26.18-3.427 71.824 20.931 83.777 29.234 9.732 7.151 23.13 18.121 28.315 18.748 0.226-0.268 0.416-0.577 0.555-0.912l0.008-0.023z" />
<glyph unicode="&#xe9ae;" d="M576.854 662.244v-1.28c-0.85-1.923-5.636-3.437-11.735-8.192-9.557-6.518-15.794-11.252-29.415-18.96-14.237-7.453-37.84-20.681-66.766-21.494h-5.594c-17.032 2.146-22.472 3.549-30.047 7.714-4.154 2.704-9.732 5.881-14.784 9.201v1.859c1.541-1.068 3.251-2.247 5.211-3.554 11.321-8.888 29.34-11.73 40.47-12.341 26.18-3.427 71.824 20.931 83.777 29.234 9.732 7.151 23.13 18.121 28.315 18.748 0.23-0.267 0.421-0.576 0.56-0.912l0.008-0.022z" />
<glyph unicode="&#xe9af;" d="M576.854 662.244v-1.28c-0.85-1.923-5.636-3.437-11.735-8.192-9.557-6.518-15.794-11.252-29.415-18.96-14.237-7.453-37.84-20.681-66.766-21.494h-5.594c-17.032 2.146-22.472 3.549-30.047 7.714-3.246 2.109-7.358 4.516-11.411 7.044v1.7c0.59-0.404 1.201-0.813 1.843-1.238 11.321-8.888 29.34-11.73 40.47-12.341 26.18-3.427 71.824 20.931 83.777 29.234 9.732 7.151 23.13 18.121 28.315 18.748 0.226-0.268 0.416-0.577 0.555-0.912l0.008-0.023z" />
</font>
</defs>
</svg>
